<?xml version="1.0" standalone="no"?>
<!DOCTYPE svg PUBLIC "-//W3C//DTD SVG 1.1//EN" "http://www.w3.org/Graphics/SVG/1.1/DTD/svg11.dtd" >
<svg xmlns="http://www.w3.org/2000/svg">
<metadata>
This is a custom SVG webfont generated by Font Squirrel.
Copyright   : Copyright c 2010 by Pablo Impallari wwwimpallaricom All rights reserved
Designer    : Pablo Impallari
Foundry     : Pablo Impallari wwwimpallaricom
Foundry URL : wwwimpallaricom
</metadata>
<defs>
<font id="Lobster14Regular" horiz-adv-x="1034" >
<font-face units-per-em="2048" ascent="1638" descent="-410" />
<missing-glyph horiz-adv-x="444" />
<glyph unicode=" "  horiz-adv-x="444" />
<glyph unicode="&#x09;" horiz-adv-x="444" />
<glyph unicode="&#xa0;" horiz-adv-x="444" />
<glyph unicode="!" horiz-adv-x="526" d="M70 163.5q0 67.5 48 115t115.5 47.5t114.5 -47.5t47 -115t-47 -115.5t-114.5 -48t-115.5 48t-48 115.5zM201 473l145 961h295l-266 -961h-174z" />
<glyph unicode="&#x22;" horiz-adv-x="860" d="M127 1149l125 387h215l-186 -387h-154zM449 1149l124 387h215l-186 -387h-153z" />
<glyph unicode="#" horiz-adv-x="1349" d="M92 227l43 209h213l43 232h-209l43 209h203l107 593h180l-133 -593h215l106 593h180l-133 -593h213l-41 -209h-217l-51 -232h219l-41 -209h-225l-62 -282h-116l51 282h-242l-61 -282h-117l51 282h-219zM485 436h232l43 232h-223z" />
<glyph unicode="$" horiz-adv-x="825" d="M49 455q0 78 43 127t105 49q41 0 64.5 -15.5t23.5 -35.5q-82 -14 -82 -152q0 -86 86 -125l73 402q-14 12 -58 46.5t-62.5 51t-46 48.5t-39 64.5t-11.5 69.5q0 109 97.5 186.5t218.5 81.5l39 217h118l-51 -223q178 -29 178 -170q0 -72 -26.5 -113.5t-71.5 -41.5 q-41 0 -80 47q49 29 49 106q0 63 -65 90l-74 -329q57 -37 83 -56.5t69 -60.5t61.5 -89t18.5 -108q0 -141 -101.5 -220t-267.5 -83l-59 -274h-56l49 276q-225 19 -225 234zM340 1024q0 -68 57 -125l49 277q-106 -23 -106 -152zM358 295q70 8 103 59.5t33 124.5q0 82 -60 156z " />
<glyph unicode="%" horiz-adv-x="1318" d="M219 999q0 186 91 312.5t241 126.5q168 0 168 -232q0 -152 -84 -296t-219 -144q-113 0 -155 57t-42 176zM248 0l790 1536h148l-791 -1536h-147zM367 975q0 -133 55 -133q78 0 126 116.5t48 278.5q0 129 -51 129t-107.5 -83t-66.5 -220q-4 -49 -4 -88zM727 233 q0 186 91 312.5t241 126.5q90 0 139 -60.5t49 -171.5q0 -70 -18.5 -142.5t-54 -142t-101 -112.5t-149.5 -43q-113 0 -155 57t-42 176zM864 209q0 -133 56 -133q78 0 122.5 109.5t44.5 271.5q0 139 -57 139q-49 0 -99 -81t-63 -218q-4 -49 -4 -88z" />
<glyph unicode="&#x26;" horiz-adv-x="1396" d="M23 401q0 158 97 287t273 166q-203 111 -203 311q0 150 124 260.5t331 110.5q160 0 268.5 -67.5t108.5 -206.5q0 -188 -143 -189q-72 0 -117 53q35 10 62.5 67.5t27.5 100.5q0 152 -135 152q-111 0 -180.5 -74t-69.5 -178q0 -96 66.5 -186t203.5 -152 q-182 -76 -269 -185.5t-87 -226.5q0 -113 70.5 -192.5t169.5 -79.5q123 0 225 89t145 296q-8 0 -62.5 6t-82.5 6q-133 0 -193 -92l-14 2q31 129 136.5 209t258.5 80q29 0 80 -5t76 -5q145 0 194 88h13q0 -88 -93.5 -176t-218.5 -109q-33 -117 -74.5 -208t-83.5 -150.5 t-96.5 -102.5t-96.5 -64.5t-101.5 -32.5t-95 -13t-91.5 -2q-201 0 -312 121.5t-111 291.5z" />
<glyph unicode="'" horiz-adv-x="548" d="M209 1149l125 387h215l-187 -387h-153z" />
<glyph unicode="(" horiz-adv-x="894" d="M283 205q0 268 80.5 536.5t235.5 484.5t351 310l27 -82q-147 -74 -274.5 -283.5t-199 -483t-71.5 -537.5q0 -383 150 -603l-68 -59q-231 256 -231 717z" />
<glyph unicode=")" horiz-adv-x="845" d="M-59 -430q225 113 384.5 504t159.5 800q0 383 -149 603l67 59q231 -256 232 -717q0 -270 -81 -537.5t-235.5 -483.5t-351.5 -310z" />
<glyph unicode="*" horiz-adv-x="1054" d="M176 1026l223 129l-223 129l62 107l219 -127v276h131v-276l219 127l61 -107l-223 -129l223 -129l-61 -106l-219 127v-277h-131v277l-219 -127z" />
<glyph unicode="+" horiz-adv-x="1054" d="M109 420l49 229h262l55 250h232l-56 -250h260l-47 -229h-262l-55 -252h-232l56 252h-262z" />
<glyph unicode="," horiz-adv-x="442" d="M49 154q0 68 47 115.5t115 47.5q66 0 102.5 -43t36.5 -112q0 -96 -72.5 -216t-193.5 -204q-18 12 -18 35q0 37 53 92t53 94q0 23 -27 41q-96 64 -96 150z" />
<glyph unicode="-" horiz-adv-x="593" d="M39 455l37 161h409l-34 -161h-412z" />
<glyph unicode="." horiz-adv-x="538" d="M63 153.5q0 67.5 47.5 115.5t115 48t115.5 -48t48 -115.5t-48 -114.5t-115.5 -47t-115 47t-47.5 114.5z" />
<glyph unicode="/" horiz-adv-x="636" d="M23 -512l434 2048h147l-434 -2048h-147z" />
<glyph unicode="0" horiz-adv-x="1118" d="M61 520q0 281 84 510.5t248 367.5t379 138q365 0 365 -535q0 -158 -44 -331.5t-123 -329.5t-207 -257t-278 -101q-248 0 -336 129.5t-88 408.5zM375 463q0 -309 121 -309q113 0 199.5 147.5t129.5 367.5t43 464q0 145 -22.5 221t-87.5 76q-104 0 -226 -222.5t-147 -541.5 q-10 -137 -10 -203z" />
<glyph unicode="1" horiz-adv-x="649" d="M43 0l270 1278h-194l24 94q252 0 521 160l-326 -1532h-295z" />
<glyph unicode="2" horiz-adv-x="1007" d="M-23 61q0 123 70 242t169 219l198 205q98 104 167.5 241.5t69.5 286.5q0 72 -39 120t-86 48q-96 0 -131 -41t-35 -125q0 -43 19.5 -86t58.5 -53q-78 -70 -155 -69q-66 0 -107 49t-41 135q0 121 104.5 211t317.5 90q389 0 389 -330q0 -129 -58.5 -243.5t-150.5 -204.5 t-188 -167t-191.5 -162t-140.5 -157h10q55 0 182.5 -18.5t208.5 -18.5q31 0 54.5 2.5t47 11.5t36 13t35.5 23l29 24q7 6 36 33t37 35q2 -33 2 -90q0 -162 -50 -235t-194 -73q-113 0 -259 37t-249 37q-20 0 -50 -10t-64.5 -26.5t-46.5 -20.5q-5 22 -5 67z" />
<glyph unicode="3" horiz-adv-x="1052" d="M12 338q0 131 64.5 212t183.5 81q137 0 160 -105q-180 -14 -180 -221q0 -182 155 -182q127 0 206 103.5t79 242.5q0 125 -68.5 232.5t-203.5 154.5q162 45 256 163t94 236q0 74 -40 121t-116 47q-74 0 -118 -44t-44 -115q0 -49 19.5 -92.5t58.5 -53.5q-76 -70 -156 -69 q-63 0 -105 47t-42 127q0 137 122 224t302 87t280.5 -86t100.5 -213q0 -106 -73 -209.5t-208 -171.5q129 -43 193.5 -133t64.5 -205q0 -199 -163.5 -362.5t-413.5 -163.5q-45 0 -89 5t-104.5 26.5t-105.5 57.5t-77 102.5t-32 156.5z" />
<glyph unicode="4" horiz-adv-x="974" d="M16 563q25 74 106 240t137 321.5t56 288.5q0 66 -14 123q94 0 160.5 -51t66.5 -144q0 -117 -47 -221t-135 -227t-117 -178h320l166 780l303 41l-176 -821h131l-41 -152h-123l-119 -563h-295l121 563h-500z" />
<glyph unicode="5" horiz-adv-x="1058" d="M31 285q0 147 79.5 218.5t186.5 71.5q125 0 145 -104q-84 -10 -134 -59.5t-50 -137.5q0 -80 49 -113.5t119 -33.5q119 0 189.5 115.5t70.5 261t-60.5 221.5t-164.5 76q-123 0 -305 -115l168 817q305 -35 368 -35q166 0 332 66q4 -45 4 -68q0 -106 -56.5 -171.5 t-178.5 -65.5q-63 0 -195.5 24.5t-146.5 26.5l-82 -371q133 63 256 64q176 0 268 -121t92 -303q0 -233 -150.5 -396t-443.5 -163q-360 0 -360 295z" />
<glyph unicode="6" horiz-adv-x="1017" d="M33 395q0 49 2 76q33 485 218 775t513 290q109 0 172 -51t63 -119q0 -55 -47 -94t-135 -43q33 31 33 74t-29.5 76.5t-72.5 33.5q-16 0 -35 -4t-56.5 -23.5t-72.5 -52.5t-77 -99.5t-77 -156.5t-66.5 -232.5t-50.5 -316.5q-10 -102 -10 -155q0 -139 40 -181t124 -42 q100 0 190.5 135t90.5 297q0 199 -109 198q-104 0 -180 -155q-41 59 -41 118q0 88 85 146.5t204 58.5q135 0 205.5 -101.5t70.5 -236.5q0 -262 -165 -441t-388 -179q-119 0 -199.5 31.5t-122.5 91t-59.5 127t-17.5 155.5z" />
<glyph unicode="7" horiz-adv-x="950" d="M68 256q0 96 36.5 205.5t88 204t147.5 224.5t171 219l202 237q-90 12 -174 12q-293 0 -424 -146q-16 70 -17 119q0 102 65.5 153.5t213.5 51.5h672l-349 -539q-231 -367 -268 -454q-66 -150 -65.5 -264.5t100.5 -198.5q-31 -80 -188 -80q-102 0 -156.5 55.5t-54.5 200.5z " />
<glyph unicode="8" horiz-adv-x="1021" d="M-16 401q0 150 95 277t273 176q-174 100 -174 279q0 156 131 278.5t326 122.5q184 0 285.5 -85t101.5 -212q0 -109 -75 -212t-212 -171q125 -39 186.5 -124t61.5 -195q0 -199 -166 -372t-401 -173q-201 0 -316.5 121.5t-115.5 289.5zM281 334q0 -88 37.5 -142.5 t107.5 -54.5q100 0 168 103.5t68 240.5q0 193 -130 303q-121 -80 -186 -206.5t-65 -243.5zM446 1167q0 -154 109 -243q98 63 152.5 168.5t54.5 199.5q0 63 -26 104q-26 40 -74 40q-96 0 -156 -80t-60 -189z" />
<glyph unicode="9" horiz-adv-x="1001" d="M59 184q0 152 177 152q-29 -29 -29 -70q0 -45 31.5 -79.5t76.5 -34.5q20 0 39 2t60 19t74.5 47t75.5 93.5t75 149.5t60.5 224t39.5 310q4 78 4 107q0 176 -44 236.5t-136 60.5q-98 0 -179 -141.5t-81 -303.5q0 -84 25.5 -147.5t89.5 -63.5q125 0 172 123q43 -53 43 -102 q0 -78 -81 -133t-194 -55q-141 0 -214.5 108.5t-73.5 249.5q0 254 153.5 427t376.5 173q395 0 395 -481q0 -309 -83 -549t-241.5 -378t-369.5 -138q-111 0 -176.5 59t-65.5 135z" />
<glyph unicode=":" horiz-adv-x="546" d="M84 276.5q0 67.5 47 115.5t114.5 48t116 -48t48.5 -115.5t-48.5 -114.5t-116 -47t-114.5 47t-47 114.5zM186 768q0 68 47.5 116t115 48t115.5 -48t48 -116t-48 -115t-115.5 -47t-115 47t-47.5 115z" />
<glyph unicode=";" horiz-adv-x="565" d="M94 186q0 68 47 116t115 48q66 0 102.5 -43t36.5 -112q0 -96 -72.5 -216t-193.5 -204q-18 12 -18 35q0 37 53 92t53 94q0 23 -27 41q-96 63 -96 149zM193 677.5q0 67.5 47 116t114.5 48.5t115.5 -48.5t48 -116t-48 -114.5t-115.5 -47t-114.5 47t-47 114.5z" />
<glyph unicode="&#x3c;" horiz-adv-x="735" d="M41 487l18 84l629 308l-20 -113l-494 -246l397 -196l-24 -117z" />
<glyph unicode="=" horiz-adv-x="1054" d="M66 207l49 229h753l-47 -229h-755zM156 647l49 230h753l-47 -230h-755z" />
<glyph unicode="&#x3e;" horiz-adv-x="704" d="M31 207l28 117l492 196l-397 246l18 113l504 -308l-23 -110z" />
<glyph unicode="?" horiz-adv-x="903" d="M98 163.5q0 67.5 48.5 115t116 47.5t114.5 -47.5t47 -115t-47 -115.5t-114.5 -48t-116 48t-48.5 115.5zM113 1104q0 123 109.5 226.5t320.5 103.5q193 0 260 -64.5t67 -183.5q0 -111 -41 -195t-104.5 -140t-129 -105.5t-127.5 -119t-89 -151.5h-135q0 80 37.5 153.5 t93.5 132.5l110 119q55 60 93 138t38 164q0 72 -31.5 106.5t-80.5 34.5q-61 0 -112.5 -48t-51.5 -122q0 -43 19.5 -84t58.5 -51q-53 -86 -150 -86q-63 0 -109 45t-46 127z" />
<glyph unicode="@" horiz-adv-x="1150" d="M-16 336q0 334 205.5 569.5t492.5 235.5q55 0 104.5 -11.5t102.5 -42t85 -99t32 -169.5q0 -201 -109 -370.5t-240 -169.5q-63 0 -90 47q-57 -80 -121 -80q-131 0 -131 141q0 78 30 190.5t95.5 210t145.5 97.5q49 0 78 -37l8 33l112 -13l-92 -393q-8 -33 -8 -47 q0 -39 27 -39q57 0 107 175t50 284q0 162 -180 162q-143 0 -256 -101.5t-168 -251t-55 -309.5q0 -129 52 -185.5t198 -56.5q205 0 307 136q47 -20 47 -92q0 -98 -112.5 -163t-301.5 -65q-205 0 -310 94.5t-105 319.5zM449 434q0 -63 36 -63q25 0 68 28q0 23 6 43l88 340 q-14 16 -37 17q-41 0 -74.5 -44t-51 -107.5t-26.5 -120t-9 -93.5z" />
<glyph unicode="A" horiz-adv-x="1368" d="M18 686q0 106 119 179t299 73q43 0 107 -6q168 266 355 435t357 169q92 0 162 -29l-321 -1507h-295l157 743q-135 61 -274 74q-117 -252 -191.5 -515t-74.5 -421q0 -72 28 -114q-45 0 -72.5 2t-70.5 13t-67.5 32.5t-44 64.5t-19.5 105q0 137 83 367.5t218 465.5 q-205 -12 -240 -106q8 0 17.5 -21.5t9.5 -42.5q0 -37 -32.5 -58.5t-82.5 -21.5q-55 0 -91 31t-36 88zM727 905q147 -29 250 -71l119 557q-172 -93 -369 -486z" />
<glyph unicode="B" horiz-adv-x="1300" d="M12 993q0 211 226.5 377t517.5 166q213 0 324.5 -94t111.5 -232q0 -94 -54.5 -182t-150.5 -143q123 -25 182.5 -115t59.5 -215q0 -82 -23.5 -176t-72 -190.5t-140.5 -160t-213 -63.5q-203 0 -202 152q0 51 26 119q72 -74 137 -74q70 0 118 61.5t66.5 141t18.5 165.5 q0 260 -194 261q-39 0 -95 -7l-168 -784h-294l278 1303l303 41l-96 -455h12q119 0 207 105.5t88 226.5q0 96 -66.5 158.5t-203.5 62.5q-201 0 -356.5 -131t-155.5 -367q0 -47 6 -76.5t14 -44t8 -18.5q-219 0 -219 188z" />
<glyph unicode="C" horiz-adv-x="1017" d="M39 471q0 119 21.5 253t75.5 281.5t133 263t205 191.5t280 76q156 0 249 -66.5t93 -207.5q0 -188 -144 -189q-72 0 -116 53q37 18 65.5 74.5t28.5 114.5q0 55 -30 90t-95 35q-109 0 -209 -152.5t-158.5 -374t-58.5 -430.5q0 -156 53 -237.5t193 -81.5q119 0 223 54 t176 151l47 -21q-51 -129 -158.5 -219t-215 -126t-210.5 -36q-231 0 -339.5 117t-108.5 387z" />
<glyph unicode="D" horiz-adv-x="1357" d="M12 995q0 213 226.5 377t535.5 164q143 0 252 -47t171.5 -131t93 -186.5t30.5 -225.5q0 -233 -78 -458.5t-210 -370t-279 -144.5q-123 0 -250 109l-17 -82h-294l278 1303l303 40l-246 -1148q55 -41 117 -41q117 0 209 140t138 344t46 417q0 387 -299 387 q-233 0 -384.5 -134t-151.5 -364q0 -47 6 -76.5t14 -44t8 -18.5q-219 0 -219 190z" />
<glyph unicode="E" horiz-adv-x="940" d="M14 324q0 172 105.5 330.5t273.5 199.5q-125 90 -125 246q0 166 130 303t319 137q127 0 210 -67.5t83 -188.5q0 -90 -45 -151.5t-107 -61.5q-55 0 -96 55q37 12 63.5 67.5t26.5 111.5q0 59 -33 86.5t-80 27.5q-88 0 -148.5 -88t-60.5 -201q0 -96 51.5 -171.5 t155.5 -102.5q-156 -35 -261 -186.5t-105 -302.5q0 -92 48 -149.5t146 -57.5q102 0 215 56t164 153l47 -21q-78 -176 -244.5 -280.5t-355.5 -104.5q-186 0 -281.5 102.5t-95.5 258.5z" />
<glyph unicode="F" horiz-adv-x="940" d="M18 1003.5q0 106.5 39 198.5t119 169t219.5 121t321.5 44q35 0 152.5 -12.5t187.5 -12.5q109 0 184 25q-4 -10 -15.5 -53t-20.5 -62.5t-28.5 -51.5t-52 -50.5t-77.5 -28.5q-109 0 -287 39l-86 -407h299l-33 -152h-299l-166 -770h-295l295 1368q-129 -4 -197.5 -98 t-68.5 -326q0 -47 6 -76.5t14.5 -44t8.5 -18.5q-111 0 -165.5 46t-54.5 152.5z" />
<glyph unicode="G" horiz-adv-x="1183" d="M39 748q0 201 84 378t253 293.5t388 116.5q160 0 270.5 -67.5t110.5 -206.5q0 -188 -144 -189q-96 0 -141 53q35 10 62.5 67.5t27.5 100.5q0 27 -6 54.5t-41 59.5t-94 32q-109 0 -216.5 -108.5t-173 -274.5t-65.5 -326q0 -147 58.5 -242.5t179.5 -95.5q117 0 174 76 l88 389l264 -2l-168 -770q-55 -256 -170.5 -383t-353.5 -127q-137 0 -211 83t-74 200q0 113 67.5 196.5t182.5 83.5q41 0 67.5 -3t61.5 -15t53.5 -42t18.5 -77q0 -35 -12 -82q-63 53 -123 53q-68 0 -106 -47t-38 -108q0 -57 34 -98.5t95 -41.5q76 0 124 52.5t81 199.5 l82 367q-137 -74 -250 -74q-233 0 -336.5 144.5t-103.5 380.5z" />
<glyph unicode="H" horiz-adv-x="1361" d="M25 1004q0 201 229 366.5t489 165.5q29 0 82 -4l-131 -610h301l131 610h295l-325 -1532h-295l164 770h-301l-164 -770h-295l297 1393q-137 -57 -212 -172t-75 -277q0 -47 6 -76.5t14.5 -44t8.5 -18.5q-111 0 -165 46.5t-54 152.5z" />
<glyph unicode="I" horiz-adv-x="768" d="M12 1004q0 201 229.5 366.5t489.5 165.5q29 0 82 -4l-326 -1532h-294l296 1391q-135 -57 -210.5 -171t-75.5 -276q0 -47 6 -76.5t14 -44t8 -18.5q-111 0 -165 46.5t-54 152.5z" />
<glyph unicode="J" horiz-adv-x="1097" d="M35 -135q0 111 67.5 192.5t182.5 81.5q41 0 67.5 -3t61.5 -15t53 -42t18 -77q0 -35 -12 -82q-63 53 -123 53q-68 0 -105.5 -45t-37.5 -106q0 -72 43 -108t96 -36q74 0 118 51.5t77 200.5l321 1463q-137 -57 -213 -172t-76 -277q0 -47 6.5 -76.5t14.5 -44t8 -18.5 q-111 0 -165 46t-54 153q0 201 229.5 366.5t489.5 165.5h82l-307 -1454q-53 -252 -176 -379t-363 -127q-143 0 -223 79t-80 210z" />
<glyph unicode="K" horiz-adv-x="1230" d="M12 1004q0 201 229.5 366.5t489.5 165.5q29 0 82 -4l-133 -627l174 235l203 270q88 118 88 116h215l-569 -656q14 0 37.5 1t33.5 1q254 0 254 -219q0 -88 -50 -273t-50 -245q0 -104 80 -135q-121 -35 -203 -35q-160 0 -160 137q0 66 54.5 262.5t54.5 276.5 q0 139 -123 139q-18 0 -68 -8l-164 -772h-294l296 1393q-137 -57 -211.5 -172t-74.5 -277q0 -47 6 -76.5t14 -44t8 -18.5q-111 0 -165 46.5t-54 152.5z" />
<glyph unicode="L" horiz-adv-x="776" d="M12 983q0 201 229.5 367t489.5 166q29 0 82 -5l-315 -1470q82 -18 204.5 -86t246.5 -123t237 -55q92 0 172 33q-16 -147 -73.5 -234.5t-139.5 -87.5q-80 0 -171 48t-175 117l-172 136q-88 68 -191.5 116t-204.5 48q-31 0 -47 -2l305 1419q-135 -57 -210.5 -171 t-75.5 -275q0 -47 6 -77t14 -44.5t8 -18.5q-111 0 -165 46.5t-54 152.5z" />
<glyph unicode="M" horiz-adv-x="1611" d="M137 0l520 1407q-154 -51 -239.5 -170t-85.5 -291q0 -47 6 -77.5t14 -45t8 -18.5q-219 0 -219 186q0 197 209 371t443 174q80 0 155 -29l-47 -1079l451 1079h295l-215 -1507h-295l131 920l-385 -920h-281l41 924l-342 -924h-164z" />
<glyph unicode="N" horiz-adv-x="1368" d="M12 1004q0 190 166 361t414 171q131 0 190 -29l162 -1085l223 1110h295l-325 -1532h-248l-174 1071l-228 -1071h-294l294 1391q-135 -55 -209.5 -171t-74.5 -276q0 -47 6 -76.5t14 -44t8 -18.5q-111 0 -165 46.5t-54 152.5z" />
<glyph unicode="O" horiz-adv-x="1361" d="M33 977q0 215 251 387t574 172q485 0 485 -524q0 -125 -26.5 -259.5t-86 -272.5t-144.5 -246.5t-215 -177t-283 -68.5q-367 0 -367 411q0 102 21.5 227.5t68.5 255.5t110.5 236.5t156 174t198.5 67.5q57 0 107 -17q-135 -82 -247 -393t-112 -559q0 -238 119 -237 q100 0 200.5 145t164 363.5t63.5 420.5q0 190 -54 274.5t-208 84.5q-244 0 -417 -145.5t-173 -381.5q0 -47 10 -79l11 -31q-207 0 -207 172z" />
<glyph unicode="P" horiz-adv-x="1173" d="M12 1004q0 201 229.5 366.5t489.5 165.5q238 0 360.5 -115.5t122.5 -287.5q0 -209 -164.5 -379t-426.5 -170h-11l-125 -584h-294l278 1303l303 40l-145 -684q147 12 252.5 171t105.5 333q0 123 -63.5 201t-190.5 78q-250 0 -390 -132t-140 -366q0 -47 6 -76.5t14 -44 t8 -18.5q-111 0 -165 46.5t-54 152.5z" />
<glyph unicode="Q" horiz-adv-x="1361" d="M33 977q0 215 251 387t574 172q485 0 485 -524q0 -244 -100 -504t-291 -402q37 -53 66 -83.5t79 -56t111 -25.5q12 0 45 4q-37 -100 -88 -138t-123 -38q-63 0 -110 19t-77 60t-45 76t-32 92q-90 -29 -190 -28q-367 0 -367 411q0 102 21.5 227.5t68.5 255.5t110.5 236.5 t156 174t198.5 67.5q57 0 107 -17q-135 -82 -247 -393t-112 -559q0 -61 4 -88q74 18 127 19q92 0 164 -56q106 135 179 367.5t73 449.5q0 190 -54 274.5t-208 84.5q-244 0 -417 -145.5t-173 -381.5q0 -47 10 -79l11 -31q-207 0 -207 172zM545 238q29 -84 98 -84q45 0 78 22 q-41 70 -117 70q-28 0 -59 -8z" />
<glyph unicode="R" horiz-adv-x="1230" d="M12 1004q0 201 229.5 366.5t489.5 165.5q227 0 346 -95t119 -233q0 -96 -59.5 -192t-161.5 -158q141 -41 141 -205q0 -88 -50 -273t-50 -245q0 -104 80 -135q-121 -35 -203 -35q-160 0 -160 137q0 66 54.5 262.5t54.5 276.5q0 139 -123 139q-14 0 -68 -8l-164 -772h-294 l278 1303l303 40l-100 -473h16q121 0 206 115t85 242q0 94 -56.5 154.5t-168.5 60.5q-252 0 -402.5 -133t-150.5 -365q0 -47 6 -76.5t14 -44t8 -18.5q-111 0 -165 46.5t-54 152.5z" />
<glyph unicode="S" horiz-adv-x="1167" d="M55 309q0 156 92.5 246t208.5 90q68 0 122 -31.5t59 -103.5q-96 0 -168 -47t-72 -146q0 -82 51 -139t146 -57q104 0 170.5 72.5t66.5 199.5q0 96 -43 184.5t-105 155.5l-124 132q-61 65 -104.5 143.5t-43.5 160.5q0 158 136.5 262.5t336.5 104.5q37 0 72 -3t85 -18.5 t86 -40t61.5 -72.5t25.5 -112q0 -90 -46 -148.5t-122 -58.5q-57 0 -94 43q41 25 66.5 75t25.5 102q0 59 -37 98t-114 39q-86 0 -137.5 -48.5t-51.5 -138.5q0 -70 34 -132t85 -106l112 -101q60 -56 111 -111t85 -142.5t34 -191.5q0 -244 -168 -378t-408 -134q-190 0 -312 88 t-122 264z" />
<glyph unicode="T" horiz-adv-x="985" d="M12 1001.5q0 106.5 39 198.5t119 169t219 121t322 44q129 0 279.5 -23.5t244.5 -23.5q131 0 238 43q-6 -260 -256 -260q-115 0 -318 45l-283 -1315h-294l290 1356h-24q-182 0 -283.5 -91t-101.5 -323q0 -47 6 -76.5t14 -44t8 -18.5q-111 0 -165 46t-54 152.5z" />
<glyph unicode="U" horiz-adv-x="1466" d="M0 993q0 141 109.5 267t289 201t375.5 75q45 0 98 -10l-74 -275l-64 -235l-49 -185q-28 -104 -41 -159.5l-26.5 -117.5t-17.5 -104t-4 -79q0 -184 141 -185q59 0 95 10.5t77 47.5t73 114.5t70 208.5t81 332l137 633h289l-136 -639q-43 -205 -80.5 -336t-93 -250 t-126 -183.5t-172 -101t-238.5 -36.5q-213 0 -304.5 82t-91.5 243q0 59 7.5 124t29.5 167l33 151q10 48 49 201l49 193l68 270q-170 -45 -266.5 -167t-96.5 -304q0 -47 6.5 -77.5t14.5 -45t8 -18.5q-219 0 -219 188z" />
<glyph unicode="V" horiz-adv-x="1259" d="M12 1004q0 201 229.5 366.5t489.5 165.5q29 0 82 -4l18 -1260l431 1254h143l-569 -1526h-312v1399q-322 -100 -321 -455q0 -47 6 -76.5t14 -44t8 -18.5q-111 0 -165 46.5t-54 152.5z" />
<glyph unicode="W" horiz-adv-x="1970" d="M12 1004q0 201 229.5 366.5t489.5 165.5q29 0 82 -4l18 -1260l431 1254h268v-1254l440 1254h144l-570 -1526h-303v1042l-405 -1042h-301v1399q-332 -104 -332 -455q0 -47 6 -76.5t14 -44t8 -18.5q-111 0 -165 46.5t-54 152.5z" />
<glyph unicode="X" horiz-adv-x="1269" d="M12 1004q0 201 229.5 366.5t489.5 165.5q29 0 82 -4l88 -426l238 420h143l-344 -596l192 -930h-325l-109 512l-297 -512h-125l385 680l-151 719q-145 -53 -225 -170t-80 -285q0 -47 6 -76.5t14 -44t8 -18.5q-111 0 -165 46.5t-54 152.5z" />
<glyph unicode="Y" horiz-adv-x="1269" d="M12 1004q0 201 229.5 366.5t489.5 165.5q29 0 82 -4l178 -733l303 727h136l-398 -895l-135 -631h-328l136 631l-197 768q-145 -53 -225 -170t-80 -285q0 -47 6 -76.5t14 -44t8 -18.5q-111 0 -165 46.5t-54 152.5z" />
<glyph unicode="Z" horiz-adv-x="1110" d="M23 0l716 1425q-18 0 -81.5 2.5t-102.5 2.5q-188 0 -188 -46q35 0 34 -65q0 -61 -37.5 -89t-82.5 -28q-53 0 -79 36t-26 85q0 84 67.5 148.5t184.5 64.5h702l-706 -1403q25 0 93.5 -2t103.5 -2q180 0 213 45q-37 0 -37 64q0 59 37.5 88.5t85.5 29.5q53 0 78.5 -34.5 t25.5 -83.5q0 -86 -73.5 -162t-188.5 -76h-739z" />
<glyph unicode="[" horiz-adv-x="819" d="M-49 -512l434 2048h395l-26 -127h-248l-381 -1794h248l-27 -127h-395z" />
<glyph unicode="\" horiz-adv-x="741" d="M86 1536h147l435 -2048h-148z" />
<glyph unicode="]" horiz-adv-x="819" d="M-49 -512l26 127h248l381 1794h-248l27 127h395l-434 -2048h-395z" />
<glyph unicode="^" horiz-adv-x="862" d="M102 1149l435 387h43l122 -387h-65l-123 164l-321 -164h-91z" />
<glyph unicode="_" horiz-adv-x="909" d="M74 0l37 162h716l-34 -162h-719z" />
<glyph unicode="`" horiz-adv-x="411" d="M49 1536h215l60 -387h-154z" />
<glyph unicode="a" horiz-adv-x="1077" d="M-27 317q0 109 34 230t95.5 231.5t166 183t231.5 72.5q166 0 166 -104v-15l22 109h295l-147 -696q-8 -35 -9 -66q0 -88 84 -88q109 0 166 193h86q-133 -379 -411 -379q-86 0 -139.5 48t-61.5 140q-127 -188 -305 -188q-117 0 -195 79.5t-78 249.5zM276 346 q0 -55 10.5 -91t29 -49t30.5 -16.5t33 -3.5q49 0 101 48.5t69 132.5l98 462q0 27 -20.5 52.5t-63.5 25.5q-82 0 -150.5 -101t-102.5 -229.5t-34 -230.5z" />
<glyph unicode="b" horiz-adv-x="909" d="M-14 250q0 57 14 117l219 1026l303 41l-98 -461q94 57 168 57q242 0 242 -350q0 -78 -16.5 -164t-57.5 -182t-101.5 -172t-161 -125t-225.5 -49q-139 0 -212.5 68.5t-73.5 193.5zM279 281q0 -94 108 -95q94 0 167 165t73 337q0 82 -29 139.5t-80 57.5q-90 0 -121 -37 l-112 -520q-6 -24 -6 -47z" />
<glyph unicode="c" horiz-adv-x="786" d="M-27 313q0 100 30 216t89.5 236t172 198.5t259.5 78.5q227 0 228 -188q0 -72 -31 -110.5t-78 -38.5q-35 0 -72 24q25 68 25 121q0 84 -57 84q-61 0 -124 -103.5t-101 -244t-38 -254.5q0 -100 35 -136t113 -36q111 0 191.5 52t170.5 155h70q-236 -379 -563 -379 q-320 -1 -320 325z" />
<glyph unicode="d" horiz-adv-x="1075" d="M-27 317q0 109 34 230t95.5 231.5t166 183t231.5 72.5q166 0 166 -104v-8l100 471l303 41l-235 -1106q-8 -35 -9 -66q0 -41 19.5 -58.5t64.5 -17.5q113 0 166 181h86q-129 -367 -411 -367q-84 0 -136.5 45t-64.5 131q-123 -188 -303 -188q-117 0 -195 79.5t-78 249.5z M276 346q0 -55 10.5 -91t29 -49t30.5 -16.5t33 -3.5q47 0 98 46.5t70 123.5v11l100 469q-12 72 -84 71q-82 0 -150.5 -101t-102.5 -229.5t-34 -230.5z" />
<glyph unicode="e" horiz-adv-x="786" d="M-27 313q0 78 16.5 167t58.5 190.5t102.5 183.5t159 135t216.5 53q225 0 226 -196q0 -172 -141.5 -297t-329.5 -135q-4 -57 -5 -82q0 -100 35 -136t113 -36q111 0 191.5 52t170.5 155h70q-236 -379 -563 -379q-320 -1 -320 325zM297 512q119 8 208 109.5t89 228.5 q0 84 -51 84q-74 0 -143.5 -128t-102.5 -294z" />
<glyph unicode="f" horiz-adv-x="546" d="M-426 -291q0 68 25.5 118t80 85t106.5 56.5t140 47.5l248 1170q74 348 373 348q98 0 169.5 -62.5t71.5 -158.5q0 -47 -6 -84h-96q4 41 4 55q0 33 -22.5 51.5t-55.5 18.5q-43 0 -84 -38t-59 -130l-35 -162h150l-15 -82h-151l-236 -1106q-74 -348 -366 -348 q-98 0 -170 62.5t-72 158.5zM-313 -262q0 -23 24.5 -45.5t57.5 -22.5q82 0 116 160l27 119q-109 -37 -167 -85t-58 -126z" />
<glyph unicode="g" horiz-adv-x="1038" d="M-27 317q0 109 34 230t95.5 231.5t166 183t231.5 72.5q166 0 166 -104v-12l22 106h295l-203 -950q98 35 157.5 99.5t100.5 193.5h86q-29 -96 -70.5 -168t-94 -114t-97.5 -64.5t-100 -36.5l-31 -148q-74 -348 -369 -348q-98 0 -163.5 51t-65.5 148q0 203 334 305l25 108 q-104 -113 -246 -112q-117 0 -195 79.5t-78 249.5zM246 -285q0 -25 19.5 -46t49.5 -21q35 0 68 48t51 134l12 59q-200 -76 -200 -174zM276 346q0 -55 10.5 -91t29 -49t30.5 -16.5t33 -3.5q45 0 94 43t70 117l104 485q-2 27 -21.5 51.5t-62.5 24.5q-82 0 -150.5 -101 t-102.5 -229.5t-34 -230.5z" />
<glyph unicode="h" d="M-78 0l297 1393l303 41l-110 -516q100 115 239 114q104 0 166 -57t62 -174q0 -90 -49.5 -283.5t-49.5 -245.5q0 -86 82 -86q61 0 96 43t76 138h86q-129 -379 -381 -379q-125 0 -183 66.5t-58 164.5q0 72 46 264.5t46 257.5q0 104 -76 105q-53 0 -98 -62.5t-58 -117.5 l-141 -666h-295z" />
<glyph unicode="i" horiz-adv-x="546" d="M-16 233q0 55 16 134l139 657h295l-147 -696q-8 -35 -8 -66q0 -41 19 -58.5t64 -17.5q59 0 110.5 51.5t74.5 129.5h86q-133 -379 -430 -379q-98 0 -158.5 61t-60.5 184zM180 1296.5q0 67.5 47 115.5t115 48t116 -48t48 -115.5t-48 -114.5t-116 -47t-115 47t-47 114.5z " />
<glyph unicode="j" horiz-adv-x="491" d="M-414 -313q0 203 336 305l219 1032h295l-203 -950q98 35 158 99.5t101 193.5h86q-29 -96 -71 -168t-94.5 -114t-97.5 -64.5t-100 -36.5l-31 -148q-74 -348 -368 -348q-98 0 -164 51.5t-66 147.5zM-301 -285q0 -25 19.5 -46t50.5 -21q35 0 67.5 48t50.5 134l13 59 q-201 -76 -201 -174zM164 1298.5q0 67.5 47 115.5t114.5 48t115.5 -48t48 -115.5t-48 -114.5t-115.5 -47t-114.5 47t-47 114.5z" />
<glyph unicode="k" horiz-adv-x="1060" d="M-78 0l297 1393l303 41l-153 -721l395 311h203l-410 -285q45 8 68 9q109 0 167 -68t58 -172q0 -43 -8 -78l-23 -102q-10 -51 -10 -66q0 -76 80 -76q61 0 96 43t76 138h86q-129 -379 -377 -379q-125 0 -191.5 60.5t-66.5 172.5q0 49 12 107l17 80q8 35 8 75q0 98 -74 99 q-59 0 -151 -76l-107 -506h-295z" />
<glyph unicode="l" horiz-adv-x="546" d="M-16 233q0 55 16 134l219 1026l303 41l-235 -1106q-8 -35 -8 -66q0 -41 19 -58.5t64 -17.5q59 0 110.5 51.5t74.5 129.5h86q-133 -379 -430 -379q-98 0 -158.5 61t-60.5 184z" />
<glyph unicode="m" horiz-adv-x="1540" d="M-78 0l217 1024h295l-22 -106q102 117 250 116q180 0 210 -176q113 174 285 174q104 0 165.5 -57t61.5 -174q0 -90 -49 -283.5t-49 -245.5q0 -86 82 -86q61 0 96 43t76 138h86q-129 -379 -381 -379q-125 0 -183 66.5t-58 164.5q0 72 46 264.5t46 257.5q0 104 -74 105 q-102 0 -160 -189l-139 -657h-295l150 707q6 25 6 51q0 90 -62 90q-109 0 -166 -191l-139 -657h-295z" />
<glyph unicode="n" d="M-78 0l217 1024h295l-22 -106q100 115 239 114q104 0 166 -57t62 -174q0 -90 -49.5 -283.5t-49.5 -245.5q0 -86 82 -86q61 0 96 43t76 138h86q-129 -379 -381 -379q-125 0 -183 66.5t-58 164.5q0 72 46 264.5t46 257.5q0 104 -74 105q-102 0 -160 -189l-139 -657h-295z " />
<glyph unicode="o" horiz-adv-x="899" d="M-29 315q0 98 30 214t91.5 236t176 198.5t263.5 78.5q262 0 263 -327q8 -4 22 -4q139 0 316 123l18 -56q-121 -131 -363 -170q-25 -281 -160.5 -448.5t-328.5 -167.5q-152 0 -240 77.5t-88 245.5zM276 342q0 -98 23 -132t82 -34q76 0 144.5 123t92.5 303q-55 12 -55 86 q0 82 64 111q-4 66 -21.5 92.5t-56.5 26.5q-68 0 -133.5 -102.5t-102.5 -236t-37 -237.5z" />
<glyph unicode="p" horiz-adv-x="958" d="M-186 -512l342 1612h295l-33 -154q102 88 239 88q250 0 250 -323q0 -90 -13 -182.5t-50 -191.5t-91.5 -175t-144.5 -125t-205 -49q-131 0 -174 73l-106 -499zM262 213q16 -47 78 -47q100 0 169 101.5t93.5 219t24.5 230.5q0 170 -103 170q-82 0 -141 -101z" />
<glyph unicode="q" horiz-adv-x="995" d="M-27 317q0 109 34 230t95.5 231.5t166 183t231.5 72.5q166 0 166 -108l20 98h295l-311 -1462l-310 -74l129 612q-104 -113 -243 -112q-117 0 -195 79.5t-78 249.5zM276 346q0 -55 10.5 -91t29 -49t30.5 -16.5t33 -3.5q43 0 90 39t70 107l108 506q-12 70 -84 69 q-82 0 -150.5 -101t-102.5 -229.5t-34 -230.5z" />
<glyph unicode="r" horiz-adv-x="770" d="M-78 0l217 1024h295l-26 -127q47 41 75.5 62.5t77.5 43t94 21.5q66 0 104 -45t38 -109q0 -59 -39 -104t-109 -45q-39 0 -58.5 21.5t-21.5 46t-10 46t-29 21.5q-66 0 -149 -78l-164 -778h-295z" />
<glyph unicode="s" horiz-adv-x="782" d="M-66 250q0 68 32 118t77 72q137 242 252 607l303 40q10 -225 21.5 -387.5t17.5 -233.5t6 -124q0 -45 -8 -78q88 51 147 103h86q-127 -147 -313 -256q-117 -123 -322 -123q-145 0 -222 79t-77 183zM43 293q0 -74 29.5 -108.5t95.5 -34.5q76 0 127 45t51 145 q0 51 -14.5 187.5t-24.5 297.5q-49 -162 -166 -387q47 -23 47 -71q0 -39 -25.5 -70t-64.5 -31q-41 0 -55 27z" />
<glyph unicode="t" horiz-adv-x="546" d="M-16 233q0 55 16 134l123 575h-68l17 82h67l62 283l303 41l-70 -324h123l-16 -82h-123l-131 -614q-8 -35 -8 -66q0 -41 19 -58.5t64 -17.5q59 0 110.5 51.5t74.5 129.5h86q-133 -379 -430 -379q-98 0 -158.5 61t-60.5 184z" />
<glyph unicode="u" d="M-16 233q0 55 16 134l139 657h295l-147 -696q-6 -31 -6 -58q0 -84 61 -84q111 0 164 181l139 657h295l-147 -696q-8 -35 -9 -66q0 -41 19.5 -58.5t64.5 -17.5q113 0 166 181h86q-133 -379 -411 -379q-88 0 -141.5 50t-61.5 144q-119 -195 -303 -194q-98 0 -158.5 61 t-60.5 184z" />
<glyph unicode="v" horiz-adv-x="847" d="M-18 229q0 49 10 99l147 696h295l-147 -696q-10 -47 -11 -74q0 -68 70 -68q94 0 179 126t130 283t45 275q-8 -20 -65 -20q-35 0 -54.5 32.5t-19.5 71.5q0 49 33 80t94 31q129 0 129 -178q0 -104 -19.5 -220t-65.5 -238t-111.5 -219t-167 -159.5t-220 -62.5t-185 61 t-66.5 180z" />
<glyph unicode="w" horiz-adv-x="1353" d="M-16 233q0 55 16 134l139 657h295l-147 -696q-6 -25 -6 -52q0 -90 61 -90q111 0 164 181l139 657h295l-147 -696q-10 -47 -11 -74q0 -68 70 -68q94 0 179 126t130 283t45 275q-8 -20 -65 -20q-35 0 -54.5 32.5t-19.5 71.5q0 49 33 80t94 31q129 0 129 -178 q0 -104 -19.5 -220t-65.5 -238t-111.5 -219t-167 -159.5t-220.5 -62.5q-209 0 -245 172q-117 -172 -291 -172q-98 0 -158.5 61t-60.5 184z" />
<glyph unicode="x" horiz-adv-x="1069" d="M0 367q27 125 65.5 234.5t96 211.5t140.5 161.5t181 59.5q193 0 222 -243l18 -156q172 195 178 295q-25 -4 -35 -4q-96 0 -96 114q0 49 40 75t99 26q53 0 84 -57.5t31 -129.5q0 -90 -60.5 -179t-224.5 -267l19 -143q12 -98 41.5 -138.5t85.5 -40.5q59 0 110.5 51.5 t73.5 129.5h86q-33 -92 -76 -162t-85 -110t-90 -65.5t-88 -33.5t-79 -8q-190 0 -250 356l-282 -344h-148l414 467l-33 229q-14 100 -31.5 135t-46.5 35q-66 0 -144.5 -131t-129.5 -368h-86z" />
<glyph unicode="y" horiz-adv-x="995" d="M-16 233q0 55 16 134l139 657h295l-147 -696q-6 -25 -6 -52q0 -90 61 -90q106 0 160 168l143 670h295l-203 -950q98 35 157.5 99.5t100.5 193.5h86q-29 -96 -70.5 -168t-94 -114t-97.5 -64.5t-100 -36.5l-31 -148q-74 -348 -369 -348q-98 0 -163.5 51t-65.5 148 q0 203 334 305l25 110q-102 -115 -246 -114q-98 0 -158.5 61t-60.5 184zM203 -285q0 -25 19.5 -46t49.5 -21q35 0 68 48t51 134l12 59q-200 -76 -200 -174z" />
<glyph unicode="z" horiz-adv-x="876" d="M0 0l522 913h-114q-113 0 -113 -32l12 -9q10 -8 10 -36q0 -53 -32.5 -81t-77.5 -28q-39 0 -66.5 23.5t-27.5 66.5q0 72 68.5 139.5t168.5 67.5h527l-502 -866q6 0 64.5 -6.5t90.5 -6.5q88 0 97 41q-39 2 -39 43q0 31 30.5 59.5t83.5 28.5q45 0 68 -27.5t23 -70.5 q0 -78 -70 -148.5t-180 -70.5h-543z" />
<glyph unicode="{" horiz-adv-x="720" d="M61 -287q0 104 109 324.5t131 320.5q6 25 6 45q0 63 -84 64q-27 0 -65 -6l24 117q37 -6 64 -7q47 0 76.5 20.5t42 59.5t15.5 70t3 78q0 57 -7 165.5t-7 159.5q0 88 28.5 177.5t107.5 162t191 72.5h88l-18 -102q-74 0 -115 -9.5t-71 -44.5q-90 -100 -95 -282l13 -350 q-6 -164 -82 -228q25 -29 24 -74q0 -88 -121.5 -342t-121.5 -358q0 -164 174 -164l-19 -92h-18q-104 0 -150.5 14.5t-83.5 71.5q-39 59 -39 137z" />
<glyph unicode="|" horiz-adv-x="1089" d="M449 -512v2050h190v-2050h-190z" />
<glyph unicode="}" horiz-adv-x="720" d="M61 -510l19 102q74 0 115 9.5t71 44.5q90 100 94 282l-12 351q6 164 82 227q-25 29 -24 74q0 88 121.5 342t121.5 358q0 164 -174 164l19 92h18q104 0 150.5 -14.5t82.5 -71.5q39 -57 39 -137q0 -104 -108.5 -324.5t-130.5 -320.5q-6 -25 -6 -45q0 -63 84 -64q25 0 65 6 l-24 -116q-37 6 -64 6q-47 0 -76.5 -20.5t-42 -59.5t-15.5 -70t-3 -78q0 -57 7 -165.5t7 -159.5q0 -88 -28.5 -177.5t-107.5 -162t-191 -72.5h-89z" />
<glyph unicode="~" horiz-adv-x="882" d="M100 1192q100 201 342 201q78 0 180.5 -34t157.5 -34q86 0 129 47l13 -2q-18 -76 -117.5 -140.5t-212.5 -64.5q-70 0 -180.5 38t-163.5 38q-78 0 -135 -53z" />
<glyph unicode="&#xa1;" horiz-adv-x="448" d="M-125 -508l266 961h174l-145 -961h-295zM121 761.5q0 67.5 47 116t114.5 48.5t115.5 -48.5t48 -116t-48 -114.5t-115.5 -47t-114.5 47t-47 114.5z" />
<glyph unicode="&#xa2;" horiz-adv-x="825" d="M63 647q0 217 114 381t312 191l46 251h118l-55 -249q184 -12 184 -140q0 -35 -10 -67h-117q10 37 11 57q0 70 -76 70h-10l-156 -703q10 -2 31 -2q51 0 103 23.5t83 46t84 69.5q-45 -266 -332 -278l-78 -352h-55l64 354q-113 16 -187 107t-74 241zM279 653q0 -127 75 -184 l113 625q-82 -63 -135 -189.5t-53 -251.5z" />
<glyph unicode="&#xa3;" horiz-adv-x="952" d="M51 686q68 137 215 182l148 605l307 63l-164 -678q121 -39 174 -39q86 0 129 47l12 -2q-18 -76 -117.5 -140.5t-211.5 -64.5h-33l-115 -473q33 4 101.5 6.5t111.5 7.5t116 36q72 30 150 88q-16 -147 -73.5 -235.5t-138.5 -88.5h-605l176 733q-4 0 -16 1t-18 1 q-78 0 -136 -53z" />
<glyph unicode="&#xa4;" horiz-adv-x="1024" d="M139 1008l78 73l115 -114q84 61 186 61q100 0 182 -59l115 114l74 -73l-113 -113q61 -84 62 -188q0 -102 -62 -187l113 -112l-74 -74l-113 113q-82 -59 -184 -60q-104 0 -188 62l-115 -115l-74 74l115 114q-59 82 -59 183q0 102 59 184zM313 709q0 -84 60.5 -144.5 t144.5 -60.5t144.5 60.5t60.5 144.5t-60.5 144t-144.5 60t-144.5 -60t-60.5 -144z" />
<glyph unicode="&#xa5;" horiz-adv-x="970" d="M39 291l29 102h196l29 133h-203l29 103h196l-229 907h336l180 -739l307 739h135l-401 -907h268l-28 -103h-262l-29 -133h268l-29 -102h-262l-61 -291h-328l62 291h-203z" />
<glyph unicode="&#xa6;" horiz-adv-x="1089" d="M449 455h190v-967h-190v967zM449 616v922h190v-922h-190z" />
<glyph unicode="&#xa7;" horiz-adv-x="1110" d="M16 158q0 111 56.5 181.5t140.5 70.5q39 0 71.5 -18.5t49 -36t41.5 -48.5q-90 -8 -128 -43t-38 -112q0 -82 40 -121t128 -39q164 0 164 198q0 92 -38 166t-92 124l-109 97q-54 46 -92 106t-38 132q0 96 58.5 170t154.5 111q-10 45 -10 86q0 170 131 262t303 92 q39 0 76 -6t84 -23.5t76.5 -59.5t29.5 -106q0 -72 -37 -118.5t-98 -46.5q-45 0 -76 32q33 20 53.5 60.5t20.5 81.5q0 47 -28.5 78.5t-86.5 31.5q-82 0 -137 -65.5t-55 -153.5q0 -70 42 -128t101 -104l119 -96q59 -49 101 -123.5t42 -168.5q0 -123 -64.5 -221.5 t-172.5 -120.5q0 -182 -118 -286t-327 -104q-43 0 -82 4.5t-88 21.5t-83.5 45t-59.5 79t-25 119zM389 924q0 -55 53.5 -118t121 -114t134 -136t88.5 -181q39 49 39 129q0 82 -46 151.5t-105.5 113.5t-133 106.5t-112.5 119.5q-39 -20 -39 -71z" />
<glyph unicode="&#xa8;" horiz-adv-x="802" d="M115 1298q0 51 36.5 88t88 37t88.5 -36.5t37 -88t-37 -88t-88.5 -36.5t-88 35.5t-36.5 88.5zM483 1298q0 51 37 88t88 37t88 -36.5t37 -88t-37 -88t-88 -36.5t-88 35.5t-37 88.5z" />
<glyph unicode="&#xa9;" horiz-adv-x="1202" d="M104 678q0 219 145.5 371.5t350.5 152.5t350.5 -151.5t145.5 -370.5t-145.5 -371.5t-350.5 -152.5q-203 0 -349.5 152.5t-146.5 369.5zM199 678q0 -182 118.5 -309t286.5 -127q166 0 285 127t119 309t-119 309t-285 127q-168 0 -286.5 -127t-118.5 -309zM311 688 q0 129 89 216t214 87q94 -4 164 -58t90 -136l-96 -37q-8 27 -14 42t-22.5 37.5t-46.5 34t-71 11.5q-82 0 -138 -48.5t-56 -138.5q0 -92 56.5 -155.5t137.5 -63.5q104 0 154 92l90 -59q-92 -139 -252 -139q-123 0 -211 93t-88 222z" />
<glyph unicode="&#xaa;" horiz-adv-x="706" d="M88 1096q0 168 75 292.5t236 124.5q41 0 80 -28l6 31h170l-86 -377q0 -4 -2 -11.5t-3 -13.5t-1 -12q0 -41 43 -41q20 0 31 4q-35 -102 -123 -102q-98 0 -119 81q-72 -88 -162 -88q-78 0 -111.5 41.5t-33.5 98.5zM248 1126q0 -78 69 -77q35 0 74 53l76 330q-23 20 -59 20 q-63 0 -111.5 -104.5t-48.5 -221.5z" />
<glyph unicode="&#xab;" horiz-adv-x="1206" d="M41 487l18 84l629 308l-20 -113l-494 -246l397 -196l-24 -117zM471 487l18 84l629 308l-20 -113l-494 -246l397 -196l-24 -117z" />
<glyph unicode="&#xac;" horiz-adv-x="909" d="M39 455l37 161h741l-104 -512h-232l72 351h-514z" />
<glyph unicode="&#xad;" horiz-adv-x="593" d="M39 455l37 161h409l-34 -161h-412z" />
<glyph unicode="&#xae;" horiz-adv-x="1132" d="M70 684q0 219 145 371.5t350 152.5t350.5 -151.5t145.5 -370.5t-145.5 -371.5t-350.5 -152.5q-203 0 -349 152.5t-146 369.5zM164 684q0 -182 118.5 -309t286.5 -127q166 0 285 127t119 309t-119 309t-285 127q-168 0 -286.5 -127t-118.5 -309zM360 393l2 596h193 q111 0 178.5 -45t67.5 -127q0 -57 -34 -99t-87 -59l133 -256l-96 -14l-127 256h-135v-252h-95zM455 723h106q145 0 146 90q0 92 -150 92h-102v-182z" />
<glyph unicode="&#xb0;" horiz-adv-x="643" d="M76 999q0 186 91 312.5t241 126.5q168 0 167 -232q0 -152 -83.5 -296t-219.5 -144q-113 0 -154.5 57t-41.5 176zM223 975q0 -133 56 -133q78 0 126 116.5t48 278.5q0 129 -51.5 129t-107.5 -83t-67 -220q-4 -49 -4 -88z" />
<glyph unicode="&#xb1;" horiz-adv-x="1091" d="M63 139l37 162h752l-35 -162h-754zM170 633l49 229h262l56 250h231l-55 -250h260l-47 -229h-262l-56 -252h-231l55 252h-262z" />
<glyph unicode="&#xb2;" horiz-adv-x="614" d="M6 739q0 55 28.5 110.5t73.5 98.5l94 94l94 98q44 46 72.5 110.5t28.5 133.5q0 39 -22.5 65t-48.5 26q-57 0 -77 -21.5t-20 -67.5q0 -63 45 -75q-45 -39 -92 -39q-37 0 -60.5 26.5t-23.5 73.5q0 66 60.5 114t185.5 48q225 0 225 -176q0 -70 -33.5 -132.5t-88 -110.5 t-109.5 -90l-111 -88q-55 -46 -82 -85h9q37 0 113.5 -10.5t117.5 -10.5q18 0 34.5 3.5l26 5.5t25.5 13l19 13q3 2 24 20.5t25 22.5q0 -53 -1 -77.5t-8.5 -57.5t-22.5 -46t-42 -23.5t-68 -10.5q-66 0 -149.5 20.5t-143.5 20.5q-12 0 -29.5 -6t-38 -15t-26.5 -12q-4 25 -4 37z " />
<glyph unicode="&#xb3;" horiz-adv-x="647" d="M27 879q0 80 36.5 124t104.5 44q82 0 96 -56q-104 -8 -104 -131q0 -51 26.5 -70.5t77.5 -19.5q63 0 104.5 58.5t41.5 134.5q0 68 -38 125t-116 81q96 23 149.5 88.5t53.5 131.5q0 39 -20.5 62.5t-55.5 23.5q-106 0 -107 -89q0 -63 46 -75q-45 -39 -93 -39 q-37 0 -60.5 26.5t-23.5 73.5q0 63 65.5 112.5t190.5 49.5q98 0 153.5 -47t55.5 -115q0 -129 -161 -205q147 -43 147 -180q0 -106 -89 -196.5t-216 -90.5q-264 1 -264 179z" />
<glyph unicode="&#xb4;" horiz-adv-x="647" d="M246 1149l186 387h215l-248 -387h-153z" />
<glyph unicode="&#xb5;" d="M-150 -340l289 1364h295l-147 -696q-6 -25 -6 -52q0 -90 61 -90q111 0 164 181l139 657h295l-147 -696q-8 -35 -9 -66q0 -41 19.5 -58.5t64.5 -17.5q113 0 166 181h86q-129 -367 -411 -367q-86 0 -139.5 47t-61.5 137q-113 -180 -293 -184l-55 -266z" />
<glyph unicode="&#xb6;" horiz-adv-x="1110" d="M147 1006q0 209 137.5 368.5t374.5 159.5q168 0 273.5 -82t105.5 -256q0 -61 -16 -147l-260 -1215h-193l166 778q-31 -10 -88 -22l-158 -756h-192l158 756q-147 29 -227.5 145.5t-80.5 270.5zM670 694h12q41 0 72 8l98 465q12 57 12 101q0 86 -47 129z" />
<glyph unicode="&#xb7;" horiz-adv-x="888" d="M246 547q0 82 57 140t139 58t140.5 -58t58.5 -140t-58.5 -139.5t-140.5 -57.5t-139 57.5t-57 139.5z" />
<glyph unicode="&#xb8;" horiz-adv-x="464" d="M0 -389q37 66 82 65.5t86 -28t65.5 -27.5t43 26.5t18.5 59.5q0 31 -19.5 52.5t-60.5 21.5q-53 0 -106 -25l108 303l72 -47l-60 -147q66 16 109 16q127 0 127 -102q0 -104 -75 -164.5t-171 -60.5q-108 0 -219 57z" />
<glyph unicode="&#xb9;" horiz-adv-x="444" d="M45 707l158 690h-113l14 51q147 0 302 86l-189 -827h-172z" />
<glyph unicode="&#xba;" horiz-adv-x="673" d="M86 1137q0 190 90 289.5t221 99.5q45 0 79 -14.5t34 -34.5q0 -35 -53 -54q-16 39 -54 39q-53 0 -92 -62.5t-53 -131t-14 -121.5q0 -84 84 -84q94 0 121 221q-31 8 -31 45q0 29 25.5 56.5t54.5 27.5q23 0 31 -8t8 -31q14 8 67 66l12 -23q-27 -88 -79 -117 q-8 -160 -90 -253t-175 -93q-96 0 -141 43.5t-45 139.5z" />
<glyph unicode="&#xbb;" horiz-adv-x="1200" d="M31 207l28 117l492 196l-397 246l18 113l504 -308l-23 -110zM485 207l29 117l492 196l-398 246l19 113l503 -308l-22 -110z" />
<glyph unicode="&#xbc;" horiz-adv-x="1411" d="M143 461l158 690h-113l15 51q147 0 301 86l-189 -827h-172zM285 -338l540 1874h148l-541 -1874h-147zM766 307q14 41 60 129t79 172t33 156q0 37 -8 67q55 0 94 -27.5t39 -76.5q0 -63 -27.5 -120.5t-79 -123t-67.5 -96.5h184l96 422l177 22l-103 -444h78l-25 -80h-71 l-70 -305h-170l70 305h-289z" />
<glyph unicode="&#xbd;" horiz-adv-x="1382" d="M143 461l158 690h-113l15 51q147 0 301 86l-189 -827h-172zM274 -338l541 1874h148l-541 -1874h-148zM750 43q0 66 39.5 130.5t98.5 118.5l116 110q57 56 97 130t40 156q0 39 -22.5 64.5t-49.5 25.5q-57 0 -76.5 -21.5t-19.5 -66.5q0 -63 45 -76q-45 -39 -92 -39 q-37 0 -60.5 27t-23.5 74q0 66 60.5 114t184.5 48q225 0 226 -176q0 -70 -34 -132.5t-88 -110.5t-110 -90l-110 -88q-55 -46 -82 -85h8q37 0 113.5 -10.5t117.5 -10.5q18 0 35 3t26 5t25 14l20 13q3 2 23.5 20.5t24.5 22.5q0 -53 -1 -77.5t-8 -57.5t-22.5 -46.5t-42 -23.5 t-67.5 -10q-66 0 -150 20.5t-143 20.5q-12 0 -29.5 -6t-38 -15.5t-26.5 -11.5q-4 25 -4 37z" />
<glyph unicode="&#xbe;" horiz-adv-x="1677" d="M125 633q0 80 37 124t104 44q82 0 96 -56q-104 -8 -104 -131q0 -51 26.5 -70.5t77.5 -19.5q63 0 104.5 58.5t41.5 134.5q0 68 -38 125t-116 82q96 23 149.5 88t53.5 131q0 39 -20.5 62.5t-55.5 23.5q-106 0 -106 -88q0 -63 45 -76q-45 -39 -92 -39q-37 0 -60.5 26.5 t-23.5 73.5q0 63 65.5 112.5t190.5 49.5q98 0 153.5 -47t55.5 -115q0 -129 -162 -204q147 -43 147 -181q0 -106 -89 -196t-216 -90q-264 0 -264 178zM522 -338l541 1874h147l-540 -1874h-148zM1010 307q14 41 60 129t79 172t33 156q0 37 -8 67q55 0 94 -27.5t39 -76.5 q0 -63 -28 -120.5t-79 -123t-67 -96.5h184l96 422l176 22l-102 -444h78l-25 -80h-72l-69 -305h-170l69 305h-288z" />
<glyph unicode="&#xbf;" horiz-adv-x="899" d="M25 -262q0 106 37.5 188t99 139.5t126 108.5t130 123t100.5 156h135q0 -80 -37.5 -154t-93.5 -132l-110 -119q-55 -60 -93 -138t-38 -164q0 -72 31.5 -106.5t80.5 -34.5q61 0 112.5 48t51.5 122q0 43 -19.5 84t-58.5 51q53 86 150 86q63 0 109 -45t46 -127 q0 -123 -109.5 -226.5t-320.5 -103.5q-329 0 -329 244zM473 762q0 70 47 118t114.5 48t116 -48.5t48.5 -117.5q0 -68 -48.5 -115t-116 -47t-114.5 47t-47 115z" />
<glyph unicode="&#xc0;" horiz-adv-x="1368" d="M18 686q0 106 119 179t299 73q43 0 107 -6q168 266 355 435t357 169q92 0 162 -29l-321 -1507h-295l157 743q-135 61 -274 74q-117 -252 -191.5 -515t-74.5 -421q0 -72 28 -114q-45 0 -72.5 2t-70.5 13t-67.5 32.5t-44 64.5t-19.5 105q0 137 83 367.5t218 465.5 q-205 -12 -240 -106q8 0 17.5 -21.5t9.5 -42.5q0 -37 -32.5 -58.5t-82.5 -21.5q-55 0 -91 31t-36 88zM727 905q147 -29 250 -71l119 557q-172 -93 -369 -486zM895 2048h215l59 -387h-153z" />
<glyph unicode="&#xc1;" horiz-adv-x="1368" d="M18 686q0 106 119 179t299 73q43 0 107 -6q168 266 355 435t357 169q92 0 162 -29l-321 -1507h-295l157 743q-135 61 -274 74q-117 -252 -191.5 -515t-74.5 -421q0 -72 28 -114q-45 0 -72.5 2t-70.5 13t-67.5 32.5t-44 64.5t-19.5 105q0 137 83 367.5t218 465.5 q-205 -12 -240 -106q8 0 17.5 -21.5t9.5 -42.5q0 -37 -32.5 -58.5t-82.5 -21.5q-55 0 -91 31t-36 88zM727 905q147 -29 250 -71l119 557q-172 -93 -369 -486zM995 1661l187 387h215l-248 -387h-154z" />
<glyph unicode="&#xc2;" horiz-adv-x="1368" d="M18 686q0 106 119 179t299 73q43 0 107 -6q168 266 355 435t357 169q92 0 162 -29l-321 -1507h-295l157 743q-135 61 -274 74q-117 -252 -191.5 -515t-74.5 -421q0 -72 28 -114q-45 0 -72.5 2t-70.5 13t-67.5 32.5t-44 64.5t-19.5 105q0 137 83 367.5t218 465.5 q-205 -12 -240 -106q8 0 17.5 -21.5t9.5 -42.5q0 -37 -32.5 -58.5t-82.5 -21.5q-55 0 -91 31t-36 88zM727 905q147 -29 250 -71l119 557q-172 -93 -369 -486zM834 1661l434 387h43l123 -387h-66l-123 164l-321 -164h-90z" />
<glyph unicode="&#xc3;" horiz-adv-x="1368" d="M18 686q0 106 119 179t299 73q43 0 107 -6q168 266 355 435t357 169q92 0 162 -29l-321 -1507h-295l157 743q-135 61 -274 74q-117 -252 -191.5 -515t-74.5 -421q0 -72 28 -114q-45 0 -72.5 2t-70.5 13t-67.5 32.5t-44 64.5t-19.5 105q0 137 83 367.5t218 465.5 q-205 -12 -240 -106q8 0 17.5 -21.5t9.5 -42.5q0 -37 -32.5 -58.5t-82.5 -21.5q-55 0 -91 31t-36 88zM727 905q147 -29 250 -71l119 557q-172 -93 -369 -486zM838 1704q100 201 342 201q78 0 180 -34t158 -34q86 0 129 47l12 -2q-18 -76 -117.5 -140.5t-212.5 -64.5 q-70 0 -180.5 38t-163.5 38q-78 0 -135 -53z" />
<glyph unicode="&#xc4;" horiz-adv-x="1368" d="M18 686q0 106 119 179t299 73q43 0 107 -6q168 266 355 435t357 169q92 0 162 -29l-321 -1507h-295l157 743q-135 61 -274 74q-117 -252 -191.5 -515t-74.5 -421q0 -72 28 -114q-45 0 -72.5 2t-70.5 13t-67.5 32.5t-44 64.5t-19.5 105q0 137 83 367.5t218 465.5 q-205 -12 -240 -106q8 0 17.5 -21.5t9.5 -42.5q0 -37 -32.5 -58.5t-82.5 -21.5q-55 0 -91 31t-36 88zM727 905q147 -29 250 -71l119 557q-172 -93 -369 -486zM881 1810q0 51 36.5 88t88 37t88 -36.5t36.5 -88t-36.5 -88t-88 -36.5t-88 35.5t-36.5 88.5zM1249 1810 q0 51 37 88t88 37t88 -36.5t37 -88t-37 -88t-88 -36.5t-88 35.5t-37 88.5z" />
<glyph unicode="&#xc5;" horiz-adv-x="1368" d="M18 686q0 106 119 179t299 73q43 0 107 -6q168 266 355 435t357 169q92 0 162 -29l-321 -1507h-295l157 743q-135 61 -274 74q-117 -252 -191.5 -515t-74.5 -421q0 -72 28 -114q-45 0 -72.5 2t-70.5 13t-67.5 32.5t-44 64.5t-19.5 105q0 137 83 367.5t218 465.5 q-205 -12 -240 -106q8 0 17.5 -21.5t9.5 -42.5q0 -37 -32.5 -58.5t-82.5 -21.5q-55 0 -91 31t-36 88zM727 905q147 -29 250 -71l119 557q-172 -93 -369 -486zM993 1786q0 66 45 126t129 60q72 0 110 -44t38 -113q0 -74 -44 -123.5t-134 -49.5q-63 0 -103.5 42.5t-40.5 101.5 zM1075 1790q0 -76 70 -76q94 0 94 94q0 96 -68 97q-49 0 -72.5 -35t-23.5 -80z" />
<glyph unicode="&#xc6;" horiz-adv-x="1564" d="M18 696q0 94 121 165t279 71q53 0 121 -6q168 270 356 441t358 171q53 0 173 -20.5t196 -20.5q117 0 240 39l-12.5 -39t-15.5 -45l-17 -40q-12 -28 -26.5 -41t-35 -29.5t-49.5 -23.5t-64 -7q-20 0 -40.5 2t-42 6t-35 7t-37 11.5t-32.5 12.5t-34.5 14t-31.5 12l-111 -518 h317l-41 -151h-309l-104 -490h458l-43 -217h-755l157 743q-152 66 -276 74q-115 -250 -189.5 -512t-74.5 -422q0 -35 4 -58.5t9 -30.5l10 -14q5 -7 5 -11q-59 4 -84.5 6t-70.5 15t-64.5 35.5t-37 65.5t-17.5 107q0 131 83 359.5t218 459.5q-203 -14 -240 -106 q8 0 17.5 -21.5t9.5 -42.5q0 -35 -30.5 -57.5t-94.5 -22.5q-49 0 -83 31.5t-34 97.5zM723 903q145 -27 254 -69l119 557q-176 -97 -373 -488z" />
<glyph unicode="&#xc7;" horiz-adv-x="1017" d="M39 471q0 119 21.5 253t75.5 281.5t133 263t205 191.5t280 76q156 0 249 -66.5t93 -207.5q0 -188 -144 -189q-72 0 -116 53q37 18 65.5 74.5t28.5 114.5q0 55 -30 90t-95 35q-109 0 -209 -152.5t-158.5 -374t-58.5 -430.5q0 -156 53 -237.5t193 -81.5q119 0 223 54 t176 151l47 -21q-68 -170 -216 -264t-306 -113l-43 -106q66 16 108 16q127 0 127 -102q0 -104 -74.5 -164.5t-170.5 -60.5q-109 0 -220 57q37 66 82 65.5t86 -28t66 -27.5t43 26.5t18 59.5q0 31 -19.5 52.5t-59.5 21.5q-53 0 -107 -25l76 211q-217 6 -319.5 123t-102.5 381z " />
<glyph unicode="&#xc8;" horiz-adv-x="940" d="M14 324q0 172 105.5 330.5t273.5 199.5q-125 90 -125 246q0 166 130 303t319 137q127 0 210 -67.5t83 -188.5q0 -90 -45 -151.5t-107 -61.5q-55 0 -96 55q37 12 63.5 67.5t26.5 111.5q0 59 -33 86.5t-80 27.5q-88 0 -148.5 -88t-60.5 -201q0 -96 51.5 -171.5 t155.5 -102.5q-156 -35 -261 -186.5t-105 -302.5q0 -92 48 -149.5t146 -57.5q102 0 215 56t164 153l47 -21q-78 -176 -244.5 -280.5t-355.5 -104.5q-186 0 -281.5 102.5t-95.5 258.5zM516 2048h215l60 -387h-154z" />
<glyph unicode="&#xc9;" horiz-adv-x="940" d="M14 324q0 172 105.5 330.5t273.5 199.5q-125 90 -125 246q0 166 130 303t319 137q127 0 210 -67.5t83 -188.5q0 -90 -45 -151.5t-107 -61.5q-55 0 -96 55q37 12 63.5 67.5t26.5 111.5q0 59 -33 86.5t-80 27.5q-88 0 -148.5 -88t-60.5 -201q0 -96 51.5 -171.5 t155.5 -102.5q-156 -35 -261 -186.5t-105 -302.5q0 -92 48 -149.5t146 -57.5q102 0 215 56t164 153l47 -21q-78 -176 -244.5 -280.5t-355.5 -104.5q-186 0 -281.5 102.5t-95.5 258.5zM676 1661l186 387h215l-248 -387h-153z" />
<glyph unicode="&#xca;" horiz-adv-x="940" d="M14 324q0 172 105.5 330.5t273.5 199.5q-125 90 -125 246q0 166 130 303t319 137q127 0 210 -67.5t83 -188.5q0 -90 -45 -151.5t-107 -61.5q-55 0 -96 55q37 12 63.5 67.5t26.5 111.5q0 59 -33 86.5t-80 27.5q-88 0 -148.5 -88t-60.5 -201q0 -96 51.5 -171.5 t155.5 -102.5q-156 -35 -261 -186.5t-105 -302.5q0 -92 48 -149.5t146 -57.5q102 0 215 56t164 153l47 -21q-78 -176 -244.5 -280.5t-355.5 -104.5q-186 0 -281.5 102.5t-95.5 258.5zM414 1661l434 387h43l123 -387h-66l-123 164l-321 -164h-90z" />
<glyph unicode="&#xcb;" horiz-adv-x="940" d="M14 324q0 172 105.5 330.5t273.5 199.5q-125 90 -125 246q0 166 130 303t319 137q127 0 210 -67.5t83 -188.5q0 -90 -45 -151.5t-107 -61.5q-55 0 -96 55q37 12 63.5 67.5t26.5 111.5q0 59 -33 86.5t-80 27.5q-88 0 -148.5 -88t-60.5 -201q0 -96 51.5 -171.5 t155.5 -102.5q-156 -35 -261 -186.5t-105 -302.5q0 -92 48 -149.5t146 -57.5q102 0 215 56t164 153l47 -21q-78 -176 -244.5 -280.5t-355.5 -104.5q-186 0 -281.5 102.5t-95.5 258.5zM487 1810q0 51 37 88t88.5 37t88 -36.5t36.5 -88t-36.5 -88t-88 -36.5t-88.5 35.5 t-37 88.5zM856 1810q0 51 37 88t88 37t88 -36.5t37 -88t-37 -88t-88 -36.5t-88 35.5t-37 88.5z" />
<glyph unicode="&#xcc;" horiz-adv-x="768" d="M12 1004q0 201 229.5 366.5t489.5 165.5q29 0 82 -4l-326 -1532h-294l296 1391q-135 -57 -210.5 -171t-75.5 -276q0 -47 6 -76.5t14 -44t8 -18.5q-111 0 -165 46.5t-54 152.5zM350 2048h215l60 -387h-154z" />
<glyph unicode="&#xcd;" horiz-adv-x="768" d="M12 1004q0 201 229.5 366.5t489.5 165.5q29 0 82 -4l-326 -1532h-294l296 1391q-135 -57 -210.5 -171t-75.5 -276q0 -47 6 -76.5t14 -44t8 -18.5q-111 0 -165 46.5t-54 152.5zM551 1661l186 387h215l-247 -387h-154z" />
<glyph unicode="&#xce;" horiz-adv-x="768" d="M12 1004q0 201 229.5 366.5t489.5 165.5q29 0 82 -4l-326 -1532h-294l296 1391q-135 -57 -210.5 -171t-75.5 -276q0 -47 6 -76.5t14 -44t8 -18.5q-111 0 -165 46.5t-54 152.5zM309 1661l434 387h43l123 -387h-65l-123 164l-322 -164h-90z" />
<glyph unicode="&#xcf;" horiz-adv-x="768" d="M12 1004q0 201 229.5 366.5t489.5 165.5q29 0 82 -4l-326 -1532h-294l296 1391q-135 -57 -210.5 -171t-75.5 -276q0 -47 6 -76.5t14 -44t8 -18.5q-111 0 -165 46.5t-54 152.5zM342 1810q0 51 37 88t88 37t88 -36.5t37 -88t-37 -88t-88 -36.5q-53 0 -89 35.5t-36 88.5z M711 1810q0 51 36.5 88t88 37t88.5 -36.5t37 -88t-37 -88t-88 -36.5q-53 0 -89 35.5t-36 88.5z" />
<glyph unicode="&#xd0;" horiz-adv-x="1357" d="M12 1004q0 201 229.5 366.5t489.5 165.5q590 0 590 -553q0 -260 -78 -493.5t-210 -375t-279 -141.5q-123 0 -250 109l-17 -82h-294l151 707h-80l41 151h72l94 445l303 40l-104 -485h161l-40 -151h-154l-109 -512q55 -41 117 -41q115 0 208 141t139 342t46 403 q0 209 -58 305.5t-224 96.5q-252 0 -402.5 -133t-150.5 -365q0 -47 6 -76.5t14 -44t8 -18.5q-111 0 -165 46.5t-54 152.5z" />
<glyph unicode="&#xd1;" horiz-adv-x="1404" d="M12 1004q0 190 166 361t414 171q131 0 190 -29l162 -1085l223 1110h295l-325 -1532h-248l-174 1071l-228 -1071h-294l294 1391q-135 -55 -209.5 -171t-74.5 -276q0 -47 6 -76.5t14 -44t8 -18.5q-111 0 -165 46.5t-54 152.5zM631 1704q100 201 342 201q78 0 180 -34 t158 -34q86 0 129 47l12 -2q-18 -76 -117.5 -140.5t-212.5 -64.5q-70 0 -180.5 38t-163.5 38q-78 0 -135 -53z" />
<glyph unicode="&#xd2;" horiz-adv-x="1347" d="M33 977q0 215 251 387t574 172q485 0 485 -524q0 -125 -26.5 -259.5t-86 -272.5t-144.5 -246.5t-215 -177t-283 -68.5q-367 0 -367 411q0 102 21.5 227.5t68.5 255.5t110.5 236.5t156 174t198.5 67.5q57 0 107 -17q-135 -82 -247 -393t-112 -559q0 -238 119 -237 q100 0 200.5 145t164 363.5t63.5 420.5q0 190 -54 274.5t-208 84.5q-244 0 -417 -145.5t-173 -381.5q0 -47 10 -79l11 -31q-207 0 -207 172zM598 2048h215l59 -387h-153z" />
<glyph unicode="&#xd3;" horiz-adv-x="1347" d="M33 977q0 215 251 387t574 172q485 0 485 -524q0 -125 -26.5 -259.5t-86 -272.5t-144.5 -246.5t-215 -177t-283 -68.5q-367 0 -367 411q0 102 21.5 227.5t68.5 255.5t110.5 236.5t156 174t198.5 67.5q57 0 107 -17q-135 -82 -247 -393t-112 -559q0 -238 119 -237 q100 0 200.5 145t164 363.5t63.5 420.5q0 190 -54 274.5t-208 84.5q-244 0 -417 -145.5t-173 -381.5q0 -47 10 -79l11 -31q-207 0 -207 172zM813 1661l186 387h215l-247 -387h-154z" />
<glyph unicode="&#xd4;" horiz-adv-x="1347" d="M33 977q0 215 251 387t574 172q485 0 485 -524q0 -125 -26.5 -259.5t-86 -272.5t-144.5 -246.5t-215 -177t-283 -68.5q-367 0 -367 411q0 102 21.5 227.5t68.5 255.5t110.5 236.5t156 174t198.5 67.5q57 0 107 -17q-135 -82 -247 -393t-112 -559q0 -238 119 -237 q100 0 200.5 145t164 363.5t63.5 420.5q0 190 -54 274.5t-208 84.5q-244 0 -417 -145.5t-173 -381.5q0 -47 10 -79l11 -31q-207 0 -207 172zM557 1661l434 387h43l123 -387h-65l-123 164l-322 -164h-90z" />
<glyph unicode="&#xd5;" horiz-adv-x="1347" d="M33 977q0 215 251 387t574 172q485 0 485 -524q0 -125 -26.5 -259.5t-86 -272.5t-144.5 -246.5t-215 -177t-283 -68.5q-367 0 -367 411q0 102 21.5 227.5t68.5 255.5t110.5 236.5t156 174t198.5 67.5q57 0 107 -17q-135 -82 -247 -393t-112 -559q0 -238 119 -237 q100 0 200.5 145t164 363.5t63.5 420.5q0 190 -54 274.5t-208 84.5q-244 0 -417 -145.5t-173 -381.5q0 -47 10 -79l11 -31q-207 0 -207 172zM561 1704q100 201 342 201q78 0 180.5 -34t157.5 -34q86 0 129 47l12 -2q-18 -76 -117.5 -140.5t-211.5 -64.5q-70 0 -180.5 38 t-163.5 38q-78 0 -136 -53z" />
<glyph unicode="&#xd6;" horiz-adv-x="1347" d="M33 977q0 215 251 387t574 172q485 0 485 -524q0 -125 -26.5 -259.5t-86 -272.5t-144.5 -246.5t-215 -177t-283 -68.5q-367 0 -367 411q0 102 21.5 227.5t68.5 255.5t110.5 236.5t156 174t198.5 67.5q57 0 107 -17q-135 -82 -247 -393t-112 -559q0 -238 119 -237 q100 0 200.5 145t164 363.5t63.5 420.5q0 190 -54 274.5t-208 84.5q-244 0 -417 -145.5t-173 -381.5q0 -47 10 -79l11 -31q-207 0 -207 172zM590 1810q0 51 37 88t88 37t88 -36.5t37 -88t-37 -88t-88 -36.5t-88 35.5t-37 88.5zM958 1810q0 51 37 88t88.5 37t88 -36.5 t36.5 -88t-36.5 -88t-88 -36.5t-88.5 35.5t-37 88.5z" />
<glyph unicode="&#xd7;" horiz-adv-x="1054" d="M201 338l194 194l-194 195l133 131l192 -194l197 196l131 -133l-195 -195l195 -194l-131 -133l-197 194l-192 -192z" />
<glyph unicode="&#xd8;" horiz-adv-x="1347" d="M31 913q0 203 242.5 364t553.5 161q33 0 50 -2l22 100h107l-25 -115q313 -74 313 -475q0 -135 -35.5 -282.5t-106.5 -289t-194.5 -244.5t-277.5 -132l-31 -143h-106l28 133q-358 0 -358 387q0 123 35 272.5t98.5 291.5t170 238.5t231.5 96.5q49 0 92 -14l18 83 q-35 6 -78 7q-236 0 -402.5 -136.5t-166.5 -357.5q0 -33 5 -54.5t10 -32.5t5 -15q-200 -1 -200 159zM506 367q0 -207 98 -224l234 1106q-125 -84 -228.5 -369.5t-103.5 -512.5zM719 180q123 90 218 341t95 493q0 217 -78 284z" />
<glyph unicode="&#xd9;" horiz-adv-x="1472" d="M0 993q0 141 109.5 267t289 201t375.5 75q45 0 98 -10l-74 -275l-64 -235l-49 -185q-28 -104 -41 -159.5l-26.5 -117.5t-17.5 -104t-4 -79q0 -184 141 -185q59 0 95 10.5t77 47.5t73 114.5t70 208.5t81 332l137 633h289l-136 -639q-43 -205 -80.5 -336t-93 -250 t-126 -183.5t-172 -101t-238.5 -36.5q-213 0 -304.5 82t-91.5 243q0 59 7.5 124t29.5 167l33 151q10 48 49 201l49 193l68 270q-170 -45 -266.5 -167t-96.5 -304q0 -47 6.5 -77.5t14.5 -45t8 -18.5q-219 0 -219 188zM840 2048h215l59 -387h-153z" />
<glyph unicode="&#xda;" horiz-adv-x="1472" d="M0 993q0 141 109.5 267t289 201t375.5 75q45 0 98 -10l-74 -275l-64 -235l-49 -185q-28 -104 -41 -159.5l-26.5 -117.5t-17.5 -104t-4 -79q0 -184 141 -185q59 0 95 10.5t77 47.5t73 114.5t70 208.5t81 332l137 633h289l-136 -639q-43 -205 -80.5 -336t-93 -250 t-126 -183.5t-172 -101t-238.5 -36.5q-213 0 -304.5 82t-91.5 243q0 59 7.5 124t29.5 167l33 151q10 48 49 201l49 193l68 270q-170 -45 -266.5 -167t-96.5 -304q0 -47 6.5 -77.5t14.5 -45t8 -18.5q-219 0 -219 188zM924 1661l186 387h215l-248 -387h-153z" />
<glyph unicode="&#xdb;" horiz-adv-x="1472" d="M0 993q0 141 109.5 267t289 201t375.5 75q45 0 98 -10l-74 -275l-64 -235l-49 -185q-28 -104 -41 -159.5l-26.5 -117.5t-17.5 -104t-4 -79q0 -184 141 -185q59 0 95 10.5t77 47.5t73 114.5t70 208.5t81 332l137 633h289l-136 -639q-43 -205 -80.5 -336t-93 -250 t-126 -183.5t-172 -101t-238.5 -36.5q-213 0 -304.5 82t-91.5 243q0 59 7.5 124t29.5 167l33 151q10 48 49 201l49 193l68 270q-170 -45 -266.5 -167t-96.5 -304q0 -47 6.5 -77.5t14.5 -45t8 -18.5q-219 0 -219 188zM743 1661l435 387h43l122 -387h-65l-123 164l-321 -164 h-91z" />
<glyph unicode="&#xdc;" horiz-adv-x="1472" d="M0 993q0 141 109.5 267t289 201t375.5 75q45 0 98 -10l-74 -275l-64 -235l-49 -185q-28 -104 -41 -159.5l-26.5 -117.5t-17.5 -104t-4 -79q0 -184 141 -185q59 0 95 10.5t77 47.5t73 114.5t70 208.5t81 332l137 633h289l-136 -639q-43 -205 -80.5 -336t-93 -250 t-126 -183.5t-172 -101t-238.5 -36.5q-213 0 -304.5 82t-91.5 243q0 59 7.5 124t29.5 167l33 151q10 48 49 201l49 193l68 270q-170 -45 -266.5 -167t-96.5 -304q0 -47 6.5 -77.5t14.5 -45t8 -18.5q-219 0 -219 188zM764 1810q0 51 37 88t88 37t88 -36.5t37 -88t-37 -88 t-88 -36.5q-53 0 -89 35.5t-36 88.5zM1133 1810q0 51 36.5 88t88 37t88 -36.5t36.5 -88t-36.5 -88t-88.5 -36.5q-53 0 -88.5 35.5t-35.5 88.5z" />
<glyph unicode="&#xdd;" horiz-adv-x="1269" d="M12 1004q0 201 229.5 366.5t489.5 165.5q29 0 82 -4l178 -733l303 727h136l-398 -895l-135 -631h-328l136 631l-197 768q-145 -53 -225 -170t-80 -285q0 -47 6 -76.5t14 -44t8 -18.5q-111 0 -165 46.5t-54 152.5zM928 1661l186 387h215l-248 -387h-153z" />
<glyph unicode="&#xde;" horiz-adv-x="1193" d="M12 778q0 145 130 280.5t319 203.5l51 233l303 41l-49 -225q221 -10 334.5 -125t113.5 -279q0 -209 -164.5 -379t-426.5 -170h-60l-76 -358h-294l245 1151q-236 -125 -235 -432q0 -47 6 -77t14 -44t8 -18q-111 0 -165 46t-54 152zM580 434h28q156 0 267.5 162t111.5 342 q0 119 -59.5 196.5t-179.5 82.5z" />
<glyph unicode="&#xdf;" horiz-adv-x="921" d="M-174 -512l340 1597q74 348 373 349q135 0 207.5 -76t72.5 -184q0 -92 -50 -175.5t-138 -124.5q199 -68 198 -290q0 -147 -38.5 -265t-100 -184.5t-126 -100.5t-124.5 -34q-23 0 -67 4l26 121q59 0 105.5 51t71 131t36 161t11.5 159q0 70 -34 113.5t-114 64.5l37 119 q170 70 170 227q0 57 -18.5 79.5t-59.5 22.5q-43 0 -84 -37.5t-59 -130.5l-326 -1523z" />
<glyph unicode="&#xe0;" horiz-adv-x="1077" d="M-27 317q0 109 34 230t95.5 231.5t166 183t231.5 72.5q166 0 166 -104v-15l22 109h295l-147 -696q-8 -35 -9 -66q0 -88 84 -88q109 0 166 193h86q-133 -379 -411 -379q-86 0 -139.5 48t-61.5 140q-127 -188 -305 -188q-117 0 -195 79.5t-78 249.5zM276 346 q0 -55 10.5 -91t29 -49t30.5 -16.5t33 -3.5q49 0 101 48.5t69 132.5l98 462q0 27 -20.5 52.5t-63.5 25.5q-82 0 -150.5 -101t-102.5 -229.5t-34 -230.5zM442 1536h215l60 -387h-154z" />
<glyph unicode="&#xe1;" horiz-adv-x="1077" d="M-27 317q0 109 34 230t95.5 231.5t166 183t231.5 72.5q166 0 166 -104v-15l22 109h295l-147 -696q-8 -35 -9 -66q0 -88 84 -88q109 0 166 193h86q-133 -379 -411 -379q-86 0 -139.5 48t-61.5 140q-127 -188 -305 -188q-117 0 -195 79.5t-78 249.5zM276 346 q0 -55 10.5 -91t29 -49t30.5 -16.5t33 -3.5q49 0 101 48.5t69 132.5l98 462q0 27 -20.5 52.5t-63.5 25.5q-82 0 -150.5 -101t-102.5 -229.5t-34 -230.5zM502 1149l186 387h215l-248 -387h-153z" />
<glyph unicode="&#xe2;" horiz-adv-x="1077" d="M-27 317q0 109 34 230t95.5 231.5t166 183t231.5 72.5q166 0 166 -104v-15l22 109h295l-147 -696q-8 -35 -9 -66q0 -88 84 -88q109 0 166 193h86q-133 -379 -411 -379q-86 0 -139.5 48t-61.5 140q-127 -188 -305 -188q-117 0 -195 79.5t-78 249.5zM276 346 q0 -55 10.5 -91t29 -49t30.5 -16.5t33 -3.5q49 0 101 48.5t69 132.5l98 462q0 27 -20.5 52.5t-63.5 25.5q-82 0 -150.5 -101t-102.5 -229.5t-34 -230.5zM299 1149l434 387h43l123 -387h-65l-123 164l-322 -164h-90z" />
<glyph unicode="&#xe3;" horiz-adv-x="1077" d="M-27 317q0 109 34 230t95.5 231.5t166 183t231.5 72.5q166 0 166 -104v-15l22 109h295l-147 -696q-8 -35 -9 -66q0 -88 84 -88q109 0 166 193h86q-133 -379 -411 -379q-86 0 -139.5 48t-61.5 140q-127 -188 -305 -188q-117 0 -195 79.5t-78 249.5zM209 1192 q100 201 342 201q78 0 180.5 -34t157.5 -34q86 0 129 47l12 -2q-18 -76 -117.5 -140.5t-212.5 -64.5q-70 0 -180 38t-164 38q-78 0 -135 -53zM276 346q0 -55 10.5 -91t29 -49t30.5 -16.5t33 -3.5q49 0 101 48.5t69 132.5l98 462q0 27 -20.5 52.5t-63.5 25.5 q-82 0 -150.5 -101t-102.5 -229.5t-34 -230.5z" />
<glyph unicode="&#xe4;" horiz-adv-x="1077" d="M-27 317q0 109 34 230t95.5 231.5t166 183t231.5 72.5q166 0 166 -104v-15l22 109h295l-147 -696q-8 -35 -9 -66q0 -88 84 -88q109 0 166 193h86q-133 -379 -411 -379q-86 0 -139.5 48t-61.5 140q-127 -188 -305 -188q-117 0 -195 79.5t-78 249.5zM276 346 q0 -55 10.5 -91t29 -49t30.5 -16.5t33 -3.5q49 0 101 48.5t69 132.5l98 462q0 27 -20.5 52.5t-63.5 25.5q-82 0 -150.5 -101t-102.5 -229.5t-34 -230.5zM369 1298q0 51 36.5 88t88 37t88 -36.5t36.5 -88t-36.5 -88t-88 -36.5t-88 35.5t-36.5 88.5zM737 1298q0 51 37 88 t88 37t88 -36.5t37 -88t-37 -88t-88 -36.5t-88 35.5t-37 88.5z" />
<glyph unicode="&#xe5;" horiz-adv-x="1077" d="M-27 317q0 109 34 230t95.5 231.5t166 183t231.5 72.5q166 0 166 -104v-15l22 109h295l-147 -696q-8 -35 -9 -66q0 -88 84 -88q109 0 166 193h86q-133 -379 -411 -379q-86 0 -139.5 48t-61.5 140q-127 -188 -305 -188q-117 0 -195 79.5t-78 249.5zM276 346 q0 -55 10.5 -91t29 -49t30.5 -16.5t33 -3.5q49 0 101 48.5t69 132.5l98 462q0 27 -20.5 52.5t-63.5 25.5q-82 0 -150.5 -101t-102.5 -229.5t-34 -230.5zM479 1274q0 66 45 126t129 60q72 0 110 -44t38 -113q0 -74 -44 -123.5t-134 -49.5q-63 0 -103.5 42.5t-40.5 101.5z M561 1278q0 -76 70 -76q94 0 94 94q0 96 -68 97q-49 0 -72.5 -35t-23.5 -80z" />
<glyph unicode="&#xe6;" horiz-adv-x="1331" d="M-16 254q0 340 454 340q57 0 107 -8q43 92 43 180q0 66 -32 105.5t-93 39.5q-141 0 -248 -96l-57 59q72 74 141.5 111t113.5 43t117 6q166 0 267 -82q121 90 276 90q127 0 175 -54t48 -148q0 -168 -141 -292t-330 -134q-4 -45 -4 -66q0 -109 31 -148.5t92 -39.5 q94 0 166 29.5t112 65.5t109 112h70q-233 -375 -565 -375q-246 0 -301 192q-49 -94 -114 -145t-177 -51q-109 0 -184.5 59.5t-75.5 206.5zM272 289q0 -43 20.5 -67.5t38 -30t36.5 -5.5q55 0 95 61.5t68 219.5q-12 2 -34 2q-100 0 -162 -49t-62 -131zM840 512 q119 8 209 108.5t90 223.5q0 90 -49 90q-74 0 -143.5 -129t-106.5 -293z" />
<glyph unicode="&#xe7;" horiz-adv-x="786" d="M-27 313q0 100 30 216t89.5 236t172 198.5t259.5 78.5q227 0 228 -188q0 -72 -31 -110.5t-78 -38.5q-35 0 -72 24q25 68 25 121q0 84 -57 84q-61 0 -124 -103.5t-101 -244t-38 -254.5q0 -100 35 -136t113 -36q111 0 191.5 52t170.5 155h70q-182 -289 -410 -357l-57 -145 q66 16 109 16q127 0 127 -102q0 -104 -75 -164.5t-171 -60.5q-109 0 -219 57q37 66 82 65.5t86 -28t65.5 -27.5t43 26.5t18.5 59.5q0 31 -19.5 52.5t-60.5 21.5q-53 0 -107 -25l84 236q-20 -4 -59 -4q-320 -1 -320 325z" />
<glyph unicode="&#xe8;" horiz-adv-x="786" d="M-27 313q0 78 16.5 167t58.5 190.5t102.5 183.5t159 135t216.5 53q225 0 226 -196q0 -172 -141.5 -297t-329.5 -135q-4 -57 -5 -82q0 -100 35 -136t113 -36q111 0 191.5 52t170.5 155h70q-236 -379 -563 -379q-320 -1 -320 325zM297 512q119 8 208 109.5t89 228.5 q0 84 -51 84q-74 0 -143.5 -128t-102.5 -294zM354 1536h215l60 -387h-154z" />
<glyph unicode="&#xe9;" horiz-adv-x="786" d="M-27 313q0 78 16.5 167t58.5 190.5t102.5 183.5t159 135t216.5 53q225 0 226 -196q0 -172 -141.5 -297t-329.5 -135q-4 -57 -5 -82q0 -100 35 -136t113 -36q111 0 191.5 52t170.5 155h70q-236 -379 -563 -379q-320 -1 -320 325zM297 512q119 8 208 109.5t89 228.5 q0 84 -51 84q-74 0 -143.5 -128t-102.5 -294zM397 1149l187 387h215l-248 -387h-154z" />
<glyph unicode="&#xea;" horiz-adv-x="786" d="M-27 313q0 78 16.5 167t58.5 190.5t102.5 183.5t159 135t216.5 53q225 0 226 -196q0 -172 -141.5 -297t-329.5 -135q-4 -57 -5 -82q0 -100 35 -136t113 -36q111 0 191.5 52t170.5 155h70q-236 -379 -563 -379q-320 -1 -320 325zM215 1149l434 387h43l123 -387h-65 l-123 164l-322 -164h-90zM297 512q119 8 208 109.5t89 228.5q0 84 -51 84q-74 0 -143.5 -128t-102.5 -294z" />
<glyph unicode="&#xeb;" horiz-adv-x="786" d="M-27 313q0 78 16.5 167t58.5 190.5t102.5 183.5t159 135t216.5 53q225 0 226 -196q0 -172 -141.5 -297t-329.5 -135q-4 -57 -5 -82q0 -100 35 -136t113 -36q111 0 191.5 52t170.5 155h70q-236 -379 -563 -379q-320 -1 -320 325zM244 1298q0 51 36.5 88t88 37t88.5 -36.5 t37 -88t-37 -88t-88 -36.5q-53 0 -89 35.5t-36 88.5zM297 512q119 8 208 109.5t89 228.5q0 84 -51 84q-74 0 -143.5 -128t-102.5 -294zM612 1298q0 51 37 88t88 37t88 -36.5t37 -88t-37 -88t-88 -36.5q-53 0 -89 35.5t-36 88.5z" />
<glyph unicode="&#xec;" horiz-adv-x="546" d="M-16 233q0 55 16 134l139 657h295l-147 -696q-8 -35 -8 -66q0 -41 19 -58.5t64 -17.5q59 0 110.5 51.5t74.5 129.5h86q-133 -379 -430 -379q-98 0 -158.5 61t-60.5 184zM135 1536h215l60 -387h-154z" />
<glyph unicode="&#xed;" horiz-adv-x="546" d="M-16 233q0 55 16 134l139 657h295l-147 -696q-8 -35 -8 -66q0 -41 19 -58.5t64 -17.5q59 0 110.5 51.5t74.5 129.5h86q-133 -379 -430 -379q-98 0 -158.5 61t-60.5 184zM248 1149l186 387h215l-248 -387h-153z" />
<glyph unicode="&#xee;" horiz-adv-x="546" d="M-16 233q0 55 16 134l139 657h295l-147 -696q-8 -35 -8 -66q0 -41 19 -58.5t64 -17.5q59 0 110.5 51.5t74.5 129.5h86q-133 -379 -430 -379q-98 0 -158.5 61t-60.5 184zM12 1149l434 387h43l123 -387h-65l-123 164l-322 -164h-90z" />
<glyph unicode="&#xef;" horiz-adv-x="546" d="M-16 233q0 55 16 134l139 657h295l-147 -696q-8 -35 -8 -66q0 -41 19 -58.5t64 -17.5q59 0 110.5 51.5t74.5 129.5h86q-133 -379 -430 -379q-98 0 -158.5 61t-60.5 184zM35 1298q0 51 37 88t88 37t88 -36.5t37 -88t-37 -88t-88 -36.5q-53 0 -89 35.5t-36 88.5zM403 1298 q0 51 37 88t88.5 37t88 -36.5t36.5 -88t-36.5 -88t-88.5 -36.5q-53 0 -89 35.5t-36 88.5z" />
<glyph unicode="&#xf0;" horiz-adv-x="1101" d="M-2 317q0 109 34 230t95 231.5t165.5 183t231.5 72.5q166 0 166 -104v-12l17 75q20 92 22 156h-158l17 82h141q-12 104 -86 203h92q166 -92 219 -203h129l-16 -82h-86q12 -49 12 -109q0 -78 -22 -190l-111 -522q-8 -35 -8 -66q0 -41 19.5 -58.5t64.5 -17.5q113 0 166 181 h86q-129 -367 -412 -367q-84 0 -136 46t-65 132q-125 -190 -305 -190q-117 0 -194.5 79.5t-77.5 249.5zM301 346q0 -55 10.5 -91t28.5 -49t30.5 -16.5t32.5 -3.5q49 0 101.5 48.5t68.5 132.5l99 462q0 25 -19.5 51.5t-64.5 26.5q-82 0 -150.5 -101t-102.5 -229.5t-34 -230.5 z" />
<glyph unicode="&#xf1;" d="M-78 0l217 1024h295l-22 -106q100 115 239 114q104 0 166 -57t62 -174q0 -90 -49.5 -283.5t-49.5 -245.5q0 -86 82 -86q61 0 96 43t76 138h86q-129 -379 -381 -379q-125 0 -183 66.5t-58 164.5q0 72 46 264.5t46 257.5q0 104 -74 105q-102 0 -160 -189l-139 -657h-295z M180 1192q100 201 342 201q78 0 180.5 -34t157.5 -34q86 0 129 47l12 -2q-18 -76 -117.5 -140.5t-211.5 -64.5q-70 0 -180.5 38t-163.5 38q-78 0 -135 -53z" />
<glyph unicode="&#xf2;" horiz-adv-x="886" d="M-41 315q0 98 29.5 214t91 236t176.5 198.5t264 78.5q262 0 262 -327q8 -4 23 -4q139 0 315 123l19 -56q-121 -131 -363 -170q-25 -281 -161 -448.5t-328 -167.5q-152 0 -240 77.5t-88 245.5zM264 342q0 -98 22.5 -132t82.5 -34q76 0 144.5 123t92.5 303q-55 12 -55 86 q0 82 63 111q-4 66 -21.5 92.5t-55.5 26.5q-68 0 -133.5 -102.5t-102.5 -236t-37 -237.5zM367 1536h215l59 -387h-154z" />
<glyph unicode="&#xf3;" horiz-adv-x="886" d="M-41 315q0 98 29.5 214t91 236t176.5 198.5t264 78.5q262 0 262 -327q8 -4 23 -4q139 0 315 123l19 -56q-121 -131 -363 -170q-25 -281 -161 -448.5t-328 -167.5q-152 0 -240 77.5t-88 245.5zM264 342q0 -98 22.5 -132t82.5 -34q76 0 144.5 123t92.5 303q-55 12 -55 86 q0 82 63 111q-4 66 -21.5 92.5t-55.5 26.5q-68 0 -133.5 -102.5t-102.5 -236t-37 -237.5zM449 1149l186 387h215l-248 -387h-153z" />
<glyph unicode="&#xf4;" horiz-adv-x="886" d="M-41 315q0 98 29.5 214t91 236t176.5 198.5t264 78.5q262 0 262 -327q8 -4 23 -4q139 0 315 123l19 -56q-121 -131 -363 -170q-25 -281 -161 -448.5t-328 -167.5q-152 0 -240 77.5t-88 245.5zM195 1149l434 387h43l123 -387h-66l-123 164l-321 -164h-90zM264 342 q0 -98 22.5 -132t82.5 -34q76 0 144.5 123t92.5 303q-55 12 -55 86q0 82 63 111q-4 66 -21.5 92.5t-55.5 26.5q-68 0 -133.5 -102.5t-102.5 -236t-37 -237.5z" />
<glyph unicode="&#xf5;" horiz-adv-x="886" d="M-41 315q0 98 29.5 214t91 236t176.5 198.5t264 78.5q262 0 262 -327q8 -4 23 -4q139 0 315 123l19 -56q-121 -131 -363 -170q-25 -281 -161 -448.5t-328 -167.5q-152 0 -240 77.5t-88 245.5zM82 1192q100 201 342 201q78 0 180.5 -34t157.5 -34q86 0 129 47l12 -2 q-18 -76 -117.5 -140.5t-212.5 -64.5q-70 0 -180 38t-164 38q-78 0 -135 -53zM264 342q0 -98 22.5 -132t82.5 -34q76 0 144.5 123t92.5 303q-55 12 -55 86q0 82 63 111q-4 66 -21.5 92.5t-55.5 26.5q-68 0 -133.5 -102.5t-102.5 -236t-37 -237.5z" />
<glyph unicode="&#xf6;" horiz-adv-x="886" d="M-41 315q0 98 29.5 214t91 236t176.5 198.5t264 78.5q262 0 262 -327q8 -4 23 -4q139 0 315 123l19 -56q-121 -131 -363 -170q-25 -281 -161 -448.5t-328 -167.5q-152 0 -240 77.5t-88 245.5zM215 1298q0 51 37 88t88 37t88 -36.5t37 -88t-37 -88t-88 -36.5 q-53 0 -89 35.5t-36 88.5zM264 342q0 -98 22.5 -132t82.5 -34q76 0 144.5 123t92.5 303q-55 12 -55 86q0 82 63 111q-4 66 -21.5 92.5t-55.5 26.5q-68 0 -133.5 -102.5t-102.5 -236t-37 -237.5zM584 1298q0 51 36.5 88t88 37t88.5 -36.5t37 -88t-37 -88t-88 -36.5 q-53 0 -89 35.5t-36 88.5z" />
<glyph unicode="&#xf7;" horiz-adv-x="966" d="M104 422l37 162h717l-35 -162h-719zM301 163.5q0 67.5 47 116t114.5 48.5t116 -48.5t48.5 -116t-48.5 -114.5t-116 -47t-114.5 47t-47 114.5zM424 850q0 68 47 116t114.5 48t116 -48t48.5 -116t-48.5 -115t-116 -47t-114.5 47t-47 115z" />
<glyph unicode="&#xf8;" horiz-adv-x="876" d="M-29 315q0 96 28 210t86 232t169 198.5t254 84.5l41 199h106l-43 -209q170 -45 176 -299q139 6 304 123h65q-45 -68 -150.5 -132.5t-222.5 -94.5q-16 -250 -122.5 -416t-268.5 -207l-45 -215h-106l43 203q-145 4 -229.5 81.5t-84.5 241.5zM276 342q0 -98 23 -132t82 -34 q76 0 143.5 125t89.5 307q-57 16 -57 94q0 84 64 109q-4 57 -22.5 82t-55.5 25q-100 0 -183.5 -203t-83.5 -373z" />
<glyph unicode="&#xf9;" d="M-16 233q0 55 16 134l139 657h295l-147 -696q-6 -31 -6 -58q0 -84 61 -84q111 0 164 181l139 657h295l-147 -696q-8 -35 -9 -66q0 -41 19.5 -58.5t64.5 -17.5q113 0 166 181h86q-133 -379 -411 -379q-88 0 -141.5 50t-61.5 144q-119 -195 -303 -194q-98 0 -158.5 61 t-60.5 184zM379 1536h215l59 -387h-153z" />
<glyph unicode="&#xfa;" d="M-16 233q0 55 16 134l139 657h295l-147 -696q-6 -31 -6 -58q0 -84 61 -84q111 0 164 181l139 657h295l-147 -696q-8 -35 -9 -66q0 -41 19.5 -58.5t64.5 -17.5q113 0 166 181h86q-133 -379 -411 -379q-88 0 -141.5 50t-61.5 144q-119 -195 -303 -194q-98 0 -158.5 61 t-60.5 184zM489 1149l187 387h215l-248 -387h-154z" />
<glyph unicode="&#xfb;" d="M-16 233q0 55 16 134l139 657h295l-147 -696q-6 -31 -6 -58q0 -84 61 -84q111 0 164 181l139 657h295l-147 -696q-8 -35 -9 -66q0 -41 19.5 -58.5t64.5 -17.5q113 0 166 181h86q-133 -379 -411 -379q-88 0 -141.5 50t-61.5 144q-119 -195 -303 -194q-98 0 -158.5 61 t-60.5 184zM258 1149l434 387h43l123 -387h-65l-123 164l-322 -164h-90z" />
<glyph unicode="&#xfc;" d="M-16 233q0 55 16 134l139 657h295l-147 -696q-6 -31 -6 -58q0 -84 61 -84q111 0 164 181l139 657h295l-147 -696q-8 -35 -9 -66q0 -41 19.5 -58.5t64.5 -17.5q113 0 166 181h86q-133 -379 -411 -379q-88 0 -141.5 50t-61.5 144q-119 -195 -303 -194q-98 0 -158.5 61 t-60.5 184zM279 1298q0 51 36.5 88t88 37t88 -36.5t36.5 -88t-36.5 -88t-88 -36.5t-88 35.5t-36.5 88.5zM647 1298q0 51 37 88t88 37t88 -36.5t37 -88t-37 -88t-88 -36.5t-88 35.5t-37 88.5z" />
<glyph unicode="&#xfd;" d="M-16 233q0 55 16 134l139 657h295l-147 -696q-6 -25 -6 -52q0 -90 61 -90q106 0 160 168l143 670h295l-203 -950q98 35 157.5 99.5t100.5 193.5h86q-29 -96 -70.5 -168t-94 -114t-97.5 -64.5t-100 -36.5l-31 -148q-74 -348 -369 -348q-98 0 -163.5 51t-65.5 148 q0 203 334 305l25 110q-102 -115 -246 -114q-98 0 -158.5 61t-60.5 184zM203 -285q0 -25 19.5 -46t49.5 -21q35 0 68 48t51 134l12 59q-200 -76 -200 -174zM487 1149l187 387h215l-248 -387h-154z" />
<glyph unicode="&#xfe;" horiz-adv-x="968" d="M-188 -512l319 1505q25 111 25 191q0 133 -88 250h92q80 -45 129 -84t89 -120t40 -190q0 -51 -8 -100q104 94 247 94q250 0 250 -323q0 -90 -13 -182.5t-50 -191.5t-91.5 -175t-144.5 -125t-205 -49q-137 0 -176 75l-106 -501zM260 217q16 -51 80 -51q100 0 169 101.5 t93.5 219t24.5 230.5q0 170 -103 170q-37 0 -76.5 -29t-66.5 -78z" />
<glyph unicode="&#xff;" d="M-16 233q0 55 16 134l139 657h295l-147 -696q-6 -25 -6 -52q0 -90 61 -90q106 0 160 168l143 670h295l-203 -950q98 35 157.5 99.5t100.5 193.5h86q-29 -96 -70.5 -168t-94 -114t-97.5 -64.5t-100 -36.5l-31 -148q-74 -348 -369 -348q-98 0 -163.5 51t-65.5 148 q0 203 334 305l25 110q-102 -115 -246 -114q-98 0 -158.5 61t-60.5 184zM203 -285q0 -25 19.5 -46t49.5 -21q35 0 68 48t51 134l12 59q-200 -76 -200 -174zM252 1298q0 51 37 88t88 37t88 -36.5t37 -88t-37 -88t-88 -36.5q-53 0 -89 35.5t-36 88.5zM621 1298q0 51 36.5 88 t88 37t88 -36.5t36.5 -88t-36.5 -88t-88.5 -36.5q-53 0 -88.5 35.5t-35.5 88.5z" />
<glyph unicode="&#x152;" horiz-adv-x="1732" d="M33 977q0 215 251 387t574 172q129 0 225 -39q111 39 265 39q35 0 152.5 -12.5t187.5 -12.5q109 0 184 25q-4 -10 -15.5 -53t-20.5 -62.5t-28.5 -51.5t-52.5 -50.5t-78 -28.5q-90 0 -232 34t-194 40q92 -131 92 -352q0 -66 -10 -154h273l-41 -151h-260 q-70 -299 -234 -490h498l-43 -217h-793q-86 -12 -145 -12q-367 0 -367 411q0 102 21.5 227.5t68.5 255.5t110.5 236.5t156 174t198.5 67.5q57 0 107 -17q-135 -82 -247 -393t-112 -559q0 -238 119 -237q100 0 200.5 145t164 363.5t63.5 420.5q0 190 -54 274.5t-208 84.5 q-244 0 -417 -145.5t-173 -381.5q0 -47 10 -79l11 -31q-207 0 -207 172z" />
<glyph unicode="&#x153;" horiz-adv-x="1357" d="M-14 324q0 356 154.5 538t383.5 182q182 0 230 -174q127 172 327 172q262 0 262 -213q0 -172 -146 -283.5t-316 -133.5q-6 -49 -7 -88q0 -92 49.5 -134.5t118.5 -42.5q80 0 186.5 81t157.5 190h93q-100 -180 -248 -299t-330 -119q-203 0 -276 178q-135 -190 -326 -190 q-166 0 -239.5 78t-73.5 258zM258 342q0 -86 36 -121t101 -35q59 0 106.5 59.5t74 144.5t38.5 192q-43 0 -64.5 26.5t-21.5 65.5q0 45 25 87t65 56q-10 106 -86 107q-68 0 -123 -66.5t-86.5 -164t-48 -190.5t-16.5 -161zM897 510q135 2 228.5 98.5t95.5 210.5q0 115 -72 115 q-53 0 -105.5 -67.5t-88 -160t-58.5 -196.5z" />
<glyph unicode="&#x178;" horiz-adv-x="1269" d="M12 1004q0 201 229.5 366.5t489.5 165.5q29 0 82 -4l178 -733l303 727h136l-398 -895l-135 -631h-328l136 631l-197 768q-145 -53 -225 -170t-80 -285q0 -47 6 -76.5t14 -44t8 -18.5q-111 0 -165 46.5t-54 152.5zM776 1810q0 51 37 88t88 37t88 -36.5t37 -88t-37 -88 t-88 -36.5q-53 0 -89 35.5t-36 88.5zM1145 1810q0 51 37 88t88 37t88 -36.5t37 -88t-37 -88t-88 -36.5q-53 0 -89 35.5t-36 88.5z" />
<glyph unicode="&#x2c6;" horiz-adv-x="600" d="M0 1149l434 387h43l123 -387h-65l-123 164l-322 -164h-90z" />
<glyph unicode="&#x2dc;" horiz-adv-x="825" d="M78 1192q100 201 342 201q78 0 180 -34t158 -34q86 0 129 47l12 -2q-18 -76 -117.5 -140.5t-212.5 -64.5q-70 0 -180 38t-164 38q-78 0 -135 -53z" />
<glyph unicode="&#x2013;" horiz-adv-x="720" d="M39 455l37 161h532l-35 -161h-534z" />
<glyph unicode="&#x2014;" horiz-adv-x="909" d="M39 455l37 161h717l-35 -161h-719z" />
<glyph unicode="&#x2018;" horiz-adv-x="624" d="M172 1397q0 59 35 97t96 38q63 0 106.5 -42t43.5 -101q0 -76 -91 -129q-25 -14 -24 -35l100 -144q0 -18 -18 -28q-115 74 -181.5 168t-66.5 176z" />
<glyph unicode="&#x2019;" horiz-adv-x="624" d="M172 1389q0 59 43 101t107 42q61 0 96 -38t35 -97q0 -82 -67 -176.5t-181 -167.5q-18 10 -19 28l101 144q0 20 -25 35q-90 53 -90 129z" />
<glyph unicode="&#x201a;" horiz-adv-x="579" d="M156 156q0 59 43 101t106 42q61 0 96 -38t35 -97q0 -82 -66.5 -176t-181.5 -168q-18 10 -18 28l100 144q0 20 -24 35q-90 53 -90 129z" />
<glyph unicode="&#x201c;" horiz-adv-x="1042" d="M156 1397q0 59 34.5 97t96.5 38q63 0 106 -42t43 -101q0 -76 -90 -129q-25 -14 -24 -35l100 -144q0 -18 -19 -28q-115 74 -181 168t-66 176zM606 1397q0 59 35 97t96 38q63 0 106.5 -42t43.5 -101q0 -76 -90 -129q-25 -14 -25 -35l100 -144q0 -18 -18 -28 q-115 74 -181.5 168t-66.5 176z" />
<glyph unicode="&#x201d;" horiz-adv-x="1042" d="M156 1389q0 59 43 101t106 42q61 0 96 -38t35 -97q0 -82 -66.5 -176.5t-181.5 -167.5q-18 10 -18 28l100 144q0 20 -24 35q-90 53 -90 129zM606 1389q0 59 43 101t107 42q61 0 96 -38t35 -97q0 -82 -66.5 -176.5t-181.5 -167.5q-18 10 -18 28l100 144q0 20 -25 35 q-90 53 -90 129z" />
<glyph unicode="&#x201e;" horiz-adv-x="1042" d="M156 156q0 59 43 101t106 42q61 0 96 -38t35 -97q0 -82 -66.5 -176t-181.5 -168q-18 10 -18 28l100 144q0 20 -24 35q-90 53 -90 129zM606 156q0 59 43 101t107 42q61 0 96 -38t35 -97q0 -82 -66.5 -176.5t-181.5 -167.5q-18 10 -18 28l100 144q0 20 -25 35 q-90 53 -90 129z" />
<glyph unicode="&#x2022;" horiz-adv-x="888" d="M246 547q0 82 57 140t139 58t140.5 -58t58.5 -140t-58.5 -139.5t-140.5 -57.5t-139 57.5t-57 139.5z" />
<glyph unicode="&#x2026;" horiz-adv-x="1437" d="M63 153.5q0 67.5 47.5 115.5t115 48t115.5 -48t48 -115.5t-48 -114.5t-115.5 -47t-115 47t-47.5 114.5zM545 153.5q0 67.5 47 115.5t114.5 48t115.5 -48t48 -115.5t-48 -114.5t-115.5 -47t-114.5 47t-47 114.5zM1047 153.5q0 67.5 47 115.5t114.5 48t115.5 -48t48 -115.5 t-48 -114.5t-115.5 -47t-114.5 47t-47 114.5z" />
<glyph unicode="&#x2039;" horiz-adv-x="735" d="M41 487l18 84l629 349l-20 -113l-494 -287l397 -237l-24 -117z" />
<glyph unicode="&#x203a;" horiz-adv-x="704" d="M31 166l28 117l492 237l-397 287l18 113l504 -349l-23 -110z" />
<glyph unicode="&#x20ac;" horiz-adv-x="1173" d="M-6 582l29 102h151q4 43 16 133h-145l29 103h137q63 274 221 445t426 171q156 0 256 -67.5t100 -206.5q0 -188 -143 -189q-72 0 -117 53q35 10 62.5 67.5t27.5 100.5q0 27 -6 54.5t-40.5 59.5t-94.5 32q-123 0 -220 -148.5t-148 -371.5h413l-28 -103h-406 q-12 -66 -18 -133h401l-29 -102h-379v-27q0 -211 55.5 -297t215.5 -86q119 0 186.5 17.5t128.5 64.5l4 -59q-88 -115 -198.5 -161t-264.5 -46q-86 0 -159.5 23.5t-141 78.5t-107.5 162.5t-40 257.5v72h-174z" />
<glyph unicode="&#x2122;" horiz-adv-x="776" d="M-47 1188q0 68 51 114t158 46q8 0 63.5 -5.5t89.5 -5.5q53 0 76 11q-14 -80 -51 -80q-18 0 -63.5 8l-57.5 10l-86 -399h-88l88 407q-123 -4 -123 -125q0 -16 8 -41q-65 1 -65 60zM305 887l139 430l84 12v-346l136 356h96l-78 -452h-88l55 319l-129 -319h-84v268l-82 -268 h-49z" />
<glyph unicode="&#xe000;" horiz-adv-x="1140" d="M0 1140h1140v-1140h-1140v1140z" />
<glyph unicode="&#xfb01;" horiz-adv-x="1093" d="M-424 -283q0 66 27.5 115t86 84t108.5 55.5t132 44.5l228 1078q94 440 479 440q367 0 367 -236q0 -86 -46.5 -125.5t-115.5 -39.5q-123 0 -123 110q0 37 19.5 68.5t49.5 31.5q14 0 17 -2q-4 82 -113 82q-168 0 -217 -231l-35 -168h164l-16 -82h-164l-234 -1106 q-41 -193 -141 -270.5t-219 -77.5q-113 0 -183.5 62.5t-70.5 166.5zM-311 -248q0 -45 28.5 -63.5t55.5 -18.5q35 0 68.5 39t49.5 121l25 119q-102 -33 -164.5 -84.5t-62.5 -112.5zM530 233q0 55 17 134l139 657h295l-147 -696q-8 -35 -9 -66q0 -41 19.5 -58.5t64.5 -17.5 q59 0 110.5 51.5t74.5 129.5h86q-133 -379 -430 -379q-98 0 -159 61t-61 184z" />
<glyph unicode="&#xfb02;" horiz-adv-x="1122" d="M-428 -291q0 127 87 189.5t267 117.5l246 1170q74 348 373 348q86 0 186 -22.5t170 -47t186 -71.5l-225 -1065q-8 -35 -8 -66q0 -41 19.5 -58.5t64.5 -17.5q59 0 110.5 51.5t73.5 129.5h86q-133 -379 -430 -379q-98 0 -158.5 61.5t-60.5 183.5q0 55 16 134l213 1005 q-78 33 -167 33q-104 0 -140 -162l-45 -219h191l-17 -82h-190l-234 -1106q-74 -348 -372 -348q-98 0 -170 62.5t-72 158.5zM-315 -262q0 -23 24.5 -45.5t57.5 -22.5q37 0 70.5 38t49.5 122l25 119q-109 -37 -168 -85t-59 -126z" />
<glyph unicode="&#xfb03;" horiz-adv-x="1564" d="M-428 -291q0 127 87 189.5t267 117.5l246 1170q74 348 373 348q170 0 252 -107q119 106 309 107q367 0 367 -236q0 -86 -46.5 -125.5t-115.5 -39.5q-123 0 -123 110q0 37 19.5 68.5t49.5 31.5q14 0 17 -2q-4 82 -113 82q-168 0 -217 -231l-35 -168h543l-147 -696 q-8 -35 -9 -66q0 -41 19.5 -58.5t64.5 -17.5q59 0 110.5 51.5t74.5 129.5h86q-133 -379 -430 -379q-98 0 -159 61.5t-61 183.5q0 55 17 134l121 575h-246l-234 -1106q-41 -193 -141 -270.5t-219 -77.5q-158 0 -223 109q-98 -109 -262 -109q-98 0 -170 62.5t-72 158.5z M-303 -262q0 -23 24.5 -45.5t57.5 -22.5q37 0 70.5 38t50.5 122l24 119q-109 -37 -168 -85t-59 -126zM145 -293q10 -66 76 -65q100 0 139 188l48 223l-183 -37l-39 -180q-14 -70 -41 -129zM238 74l180 30l176 838h-172zM438 1024h174l15 70q31 150 102 256q-31 35 -82 34 q-141 0 -176 -192z" />
<glyph unicode="&#xfb04;" horiz-adv-x="1597" d="M-428 -291q0 127 87 189.5t267 117.5l246 1170q74 348 373 348q152 0 235 -86q94 86 240 86q86 0 186.5 -22.5t170 -47t186.5 -71.5l-226 -1065q-8 -35 -8 -66q0 -41 19.5 -58.5t64.5 -17.5q59 0 110.5 51.5t73.5 129.5h86q-133 -379 -430 -379q-98 0 -158.5 61.5 t-60.5 183.5q0 55 17 134l213 1005q-78 33 -168 33q-104 0 -140 -162l-45 -219h191l-17 -82h-190l-236 -1106q-41 -193 -141 -270.5t-219 -77.5q-158 0 -223 111q-98 -111 -262 -111q-98 0 -170 62.5t-72 158.5zM-303 -262q0 -23 24.5 -45.5t57.5 -22.5q37 0 70.5 38 t50.5 122l24 119q-109 -37 -168 -85t-59 -126zM145 -291q8 -68 76 -67q100 0 139 188l48 223l-183 -37l-39 -180q-14 -68 -41 -127zM238 74l180 30l178 838h-174zM438 1024h174l35 162q20 100 66 178q-27 20 -66 20q-141 0 -176 -192z" />
</font>
</defs>
</svg>
